<svg xmlns="http://www.w3.org/2000/svg" xmlns:xlink="http://www.w3.org/1999/xlink" viewBox="0 0 714.34 587.71" xmlns:v="https://vecta.io/nano"><style><![CDATA[.B{isolation:isolate}.L,.M,.c,.C,.k{mix-blend-mode:color-burn}.H{mix-blend-mode:screen}.o{fill:#e73a4d}.p{fill:#fff}.q{opacity:.35}.r{fill:#c34}.s{fill:#ffd3d8}.t{fill:#f75668}.u{fill:#a6cd36}.v{fill:#e6f9fa}.w{fill:#afd4f0}.x{fill:#7ca518}.y{fill:#460a32}.z{opacity:.2}.AA{fill:#618096}.AB{fill:#5394c9}.AC{fill:#b6111c}.AD{fill:#f9f2ce}.AE{fill:#fbb87c}.AF{fill:#824b4b}.AG{fill:#3e99de}.AH{fill:#112030}.AI{fill:#f5b269}.AJ{fill:#fee19d}.AK{fill:#f2cb6e}.AL{fill:#99c7eb}]]></style><defs><clipPath id="A" transform="translate(-94.91 -240.89)"><path d="M398.37 600.86v104.02l-160.22-93.03V508.13l160.22 92.73z" fill="none"/></clipPath><path id="B" d="M383.87 222.57a7.1 7.1 0 0 1-3.42 5.4c-1.9 1.1-3.42.44-3.42-1.45a7.08 7.08 0 0 1 3.42-5.39c1.9-1.1 3.42-.44 3.42 1.44z"/><path id="C" d="M393.63 250.7a3.74 3.74 0 0 1-1.8 2.84c-1 .57-1.8.23-1.8-.76a3.73 3.73 0 0 1 1.8-2.84c1-.58 1.8-.24 1.8.76z"/><path id="D" d="M382.57 236.1a7.5 7.5 0 0 1-3.62 5.71c-2 1.15-3.62.47-3.62-1.53a7.51 7.51 0 0 1 3.62-5.71c2-1.15 3.62-.47 3.62 1.53z"/><path id="E" d="M390.73 242.6a.4.4 0 0 1-.2.31c-.1.07-.2 0-.2-.08a.4.4 0 0 1 .2-.31c.1-.07.2-.03.2.08z"/><path id="F" d="M394.75 237.58a.44.44 0 0 1-.2.32c-.1.06-.2 0-.2-.1a.4.4 0 0 1 .2-.31c.1-.06.2-.03.2.08z"/><path id="G" d="M379.84 225.25a10.32 10.32 0 0 1-.76 2.67.76.76 0 0 1-.33.05c-1 0-1.2-.92-1.2-1.47a5.62 5.62 0 0 1 .82-2.56 5.38 5.38 0 0 1 1.47 1.31z"/></defs><g class="B"><g><path class="C q AB" d="M252.08 348.35L348.7 587.7h-45.18L0 413.14l126.02-72.72 126.06 7.93z"/><path d="M714.33 356.34L348.7 568 69.7 407.4l366.73-211.68 277.9 160.6z" fill="#86abc7"/><path class="C q AB" d="M321.78 342.6v183.87H276.6L69.7 407.4l100.6-58.06 151.47-6.74z"/><path d="M643.25 118.76V340.4l-126.18 73.05-4.48-2.07-4.5-2.07-60.15 35.06v9.1l-126.16 73.03V304.84l321.47-186.08z" fill="#f6f1d4"/><path class="C q AB" d="M643.25 118.76L321.78 304.84v58.97l69.38-39.27-.48 162.05 23.15-.5V310.53l111.84-64.75v162.68l22.2.05-.4-175.35 95.76-55.43v-58.97z"/><path d="M508.1 268.1v141.2l-60.15 35.06V303.14l60.15-35.05z" class="p"/><path d="M503.47 270.77v135.5l-55.5 32.34V303.1l54.2-31.6z" class="AG"/><g class="p"><path d="M475.4 424.07l-3.7 2.15V289.3l3.7-2.16.01 136.94z"/><path class="H z" d="M447.97 316.2l53.28-31.03v15.24l-53.28 133.02V316.2z"/></g><path d="M321.78 304.84v221.64l-206.1-118.76V186.08l206.1 118.76z" fill="#e5a248"/><path d="M643.24 118.75l-321.46 186.1-206.1-118.76L438.07 0l205.17 118.75z" fill="#ed1e35"/><path d="M609.75 119.23L321.64 285.3l-172.22-99.25L438.05 19.5l171.7 99.72z" fill="#f6f1d4"/><path d="M592.73 128.5l-30.95 17.95L321.64 285.3 166.2 195.8 438.04 39l154.7 89.5z" fill="#fce19e"/><g class="L q"><path class="M q AH" d="M358.92 104.56l31.96 18.87h10.53l-8.2-38.7-34.3 19.83z"/></g><g class="L q"><path class="M q AH" d="M290.27 144.2l31.96 18.87h10.52l-8.2-38.7-34.3 19.83z"/></g><g class="L q"><path class="M q AH" d="M221.62 183.82l31.95 18.87h10.53l-8.2-38.7-34.28 19.83z"/></g><g class="AB"><path class="C q" d="M394.26 243.32l-64.8 37.5c-17.4-10.37-17.24-26.9.5-37.16s46.33-10.33 64.3-.33z"/><path class="C q" d="M394.68 261.5c-11.9 6.86-28.67 9.17-43.85 6.94l55.83-32.32c3.9 8.8-.08 18.5-11.98 25.38zm215.07-142.27L578 137.05 421.85 48.27l16.2-28.76 171.7 99.72z"/></g><path d="M609.75 119.23l-16.8 9.75L438.05 39V19.5l171.7 99.72z" fill="#e5a248"/><path d="M654.62 125.4L333.16 311.5l-11.38-6.65 321.46-186.1 11.38 6.66z" fill="#ed1e35"/><path d="M440.28 286.87v183.87l-6.3 3.65-13.45 7.83-6.7 3.9V302.24l6.7-3.9 19.74-11.48z" class="o"/><path d="M413.83 302.23V486.1l-11.3-6.37V295.86l11.3 6.37z" class="AC"/><path d="M574.34 209.12v184.02l-26.46 15.37V224.5l26.46-15.37z" class="o"/><path d="M547.9 224.5V408.5l-11.3-6.37V218.12l11.3 6.37z" class="AC"/><path d="M654.62 125.4v37.14L333.16 349.03V311.5L654.62 125.4z" class="o"/><path d="M115.67 186.08v37.14l217.5 125.8V311.5l-217.5-125.4z" class="AC"/><path d="M389.57 207.7v56l-5.18-3.02L381 202.6l8.56 5.1z" class="AI"/><path d="M572.98 101.6l-183.4 106.1-8.56-5.1 183.4-106.1 8.56 5.1z" class="w"/><path d="M134.1 375.6l169.36 98.05v-5.7l-163.9-94.87-5.46 2.5z" class="AJ"/><path d="M303.46 464v3.98l-163.9-94.88v-108l3.7 2.14v103.72L303.46 464z" class="v"/><path d="M303.46 359.97V464l-160.22-93.03V267.24l160.22 92.73z" fill="#2c72d1"/><path d="M134.1 261.92V375.6l5.46-2.5v-108l-5.46-3.18z" class="AD"/><path d="M386.15 446.72l-42.02 24.48v-5.68l36.56-21.3 5.46 2.5z" class="AJ"/><path d="M380.7 336.22v108l-36.57 21.3v-108l36.57-21.3z" class="p"/><g class="AI"><path d="M386.15 333.04v113.68l-5.46-2.5v-108l5.46-3.18zm130.93-70.17l-.01 150.56-8.98-4.12V268.1l9-5.23z"/></g><path d="M620.85 310.95l-42 24.48v-5.68l36.55-21.3 5.46 2.5z" class="AJ"/><path d="M615.4 200.45v108l-36.55 21.3v-108l36.55-21.3z" class="p"/><path d="M377.63 338.02v104.66l-33.5 19.52V357.52l33.5-19.5z" class="AG"/><path class="H p z" d="M376.37 360.35v3.5l-29.27 96.63-3 1.72v-83.07l32.26-18.77z"/><path d="M612.32 202.25V306.9l-33.48 19.52V221.75l33.48-19.5z" class="AG"/><path d="M377.63 338.02v21.84l-33.5 19.52v-21.86l33.5-19.5z" class="o"/><path d="M377.63 359.88l-7.85 4.53v-21.86l7.85-4.53v21.86z" class="u"/><path d="M360.54 369.85l-7.85 4.53v-21.86l7.85-4.53v21.86z" class="p"/><path d="M612.32 202.25v21.84l-33.48 19.52v-21.86l33.48-19.5z" class="o"/><path d="M612.32 224.1l-7.84 4.53v-21.86l7.84-4.53v21.86z" class="u"/><path d="M595.24 234.08l-7.85 4.53v-21.86l7.85-4.53v21.86z" class="p"/><path d="M620.85 197.27v113.68l-5.46-2.5v-108l5.46-3.18z" class="AI"/><path d="M419.4 208.48c0 9-3.62 19.16-9.5 28.4a70.43 70.43 0 0 1-21.56 21.92l-1.37.8c-6.5 3.76-12.58 5.33-17.66 4.94l-1 1.4-9.1-5.4c-5-2.82-8.08-8.52-8.08-16.73 0-9 3.62-19.17 9.48-28.4s13.94-17.5 22.88-22.65 15.83-6.94 21.7-4.47c.9.37 6.38 3.6 7.16 4.13.05 0 4.85 2.75 4.85 2.75l-.92 1.33a21.9 21.9 0 0 1 3.13 11.96z" class="w"/><path d="M388.35 258.8l-1.37.8c-6.5 3.76-12.58 5.33-17.66 4.94l-1 1.4-9.1-5.4c-5-2.82-8.08-8.52-8.08-16.73 0-9 3.62-19.17 9.48-28.4l8.57 5.1 8.32 24.73z" fill="#86abc7"/><path d="M597.45 90.9l.92-1.34-4.78-2.75-5.93-3.48c-5.87-2.48-14-1.43-22.92 3.74s-17.06 13.47-22.93 22.73-9.5 19.45-9.5 28.4c0 8.2 3.08 13.9 8.1 16.7l9.08 5.42 1-1.4c5.1.38 11.14-1.18 17.66-4.94 9-5.17 17.06-13.48 22.93-22.73s9.5-19.46 9.5-28.4a21.79 21.79 0 0 0-3.13-11.96z" class="w"/><g class="p"><path d="M605.72 105.9c0 9-3.62 19.15-9.5 28.4s-14 17.56-22.93 22.73-17.05 6.22-22.92 3.74-9.5-8.5-9.5-17.44 3.63-19.15 9.5-28.4 14-17.56 22.92-22.73 17.06-6.22 22.93-3.74 9.5 8.5 9.5 17.45z"/><path d="M572.98 101.6v55.6l-183.4 106.5v-56l183.4-106.1z"/><path d="M424.58 211.5c0 8.95-3.63 19.15-9.5 28.4s-14 17.56-22.93 22.73-17.06 6.22-22.92 3.74-9.5-8.5-9.5-17.44 3.63-19.16 9.5-28.4 14-17.56 22.92-22.73 17.06-6.22 22.93-3.7 9.5 8.44 9.5 17.4z"/></g><g class="o"><use xlink:href="#B"/><path d="M452.33 193.43c0 7.16-5 12.77-11.9 16.77l-4.55 2.63v12.4l-2.78 1.6V195l7.48-4.32c7.4-4.27 11.76-3.86 11.76 2.74zm-2.93 1.74c0-5.4-3.3-5.4-8.88-2.17l-4.65 2.68v14.87l4.55-2.63c5.3-3.06 8.98-6.9 8.98-12.75zm12.97 14.77l-2.8 1.6V179.7l2.8-1.6zm26.9-45.1l-16.92 36.87 16.64-9.6-.37 2.68-19.48 11.24v-2.32l17.07-36.95-15.3 8.83v-2.4l18.36-10.6zm23.57-13.6l-16.92 36.88 16.64-9.6-.37 2.68-19.48 11.25v-2.32l17.06-37-15.3 8.83v-2.42l18.36-10.6zm22 8.17l-13.4 7.7-2.8 10.3-2.83 1.7 10.64-38 3.5-2 10.6 25.72-2.93 1.7zm-.74-1.94l-5.9-15.1-6 21.93z"/></g><path d="M69.7 407.4v19.72L348.7 587.7V568L69.7 407.4z" fill="#749bb8"/><path d="M348.7 568l365.63-211.65v19.72L348.7 587.7V568z" fill="#8ab4d4"/><g class="B"><path d="M369.45 94.57v10l31.96 18.87v-10l-31.96-18.87z" class="AK"/><path d="M401.4 113.44v10l34.32-19.82v-10l-34.32 19.82z" class="p"/><path d="M369.45 94.57l31.96 18.87 34.32-19.82-32-18.87-34.3 19.82z" class="AD"/></g><path d="M420.65 94.2c0 2.58-1.7 5.16-5.1 7.14a27.29 27.29 0 0 1-24.76 0c-3.4-2-5.1-4.56-5.1-7.14a6.53 6.53 0 0 1 1.2-3.69l2.47-3.53h1.6a15.91 15.91 0 0 1 2.12-1 26.56 26.56 0 0 1 10.11-1.87 25.28 25.28 0 0 1 12.14 2.86l1.53-.17 2.5 3.56a6.76 6.76 0 0 1 1.31 3.84z" class="w"/><path d="M418 90.1c0 2.2-1.46 4.4-4.35 6.07a23.22 23.22 0 0 1-21 0c-2.9-1.68-4.35-3.87-4.35-6.07a5.56 5.56 0 0 1 1-3.12 9.77 9.77 0 0 1 3.32-2.93 23.05 23.05 0 0 1 21 0c2.92 1.65 4.38 3.85 4.38 6.05z" class="AL"/><g class="AA"><path d="M403.16 97.1a19.64 19.64 0 0 1-9.69-2.3c-2.26-1.3-3.55-3-3.55-4.67a3.94 3.94 0 0 1 .75-2.2 8.26 8.26 0 0 1 2.79-2.45 21.5 21.5 0 0 1 19.39 0c2.25 1.3 3.55 3 3.55 4.65s-1.3 3.37-3.55 4.67a19.64 19.64 0 0 1-9.69 2.3zm0-13.47a19.5 19.5 0 0 0-9.47 2.25 7.87 7.87 0 0 0-2.64 2.31 3.47 3.47 0 0 0-.67 1.94c0 1.5 1.2 3.05 3.32 4.27a21.18 21.18 0 0 0 18.92 0c2.1-1.22 3.32-2.78 3.32-4.27s-1.2-3.05-3.32-4.25a19.46 19.46 0 0 0-9.46-2.29zm-10.5 12.54l-1.88 5.17c-3.4-2-5.1-4.56-5.1-7.14a6.53 6.53 0 0 1 1.2-3.69l2.47-3.53a5.56 5.56 0 0 0-1 3.12c-.03 2.2 1.43 4.4 4.32 6.07z"/></g><g class="B"><path d="M300.8 134.22v10l31.95 18.87v-10l-31.95-18.87z" class="AK"/><path d="M332.75 153.1v10l34.33-19.82v-10l-34.33 19.82z" class="p"/><path d="M300.8 134.22l31.95 18.87 34.33-19.82-32-18.87-34.3 19.82z" class="AD"/></g><path d="M352 133.84c0 2.6-1.7 5.17-5.1 7.15a27.29 27.29 0 0 1-24.76 0c-3.42-2-5.1-4.56-5.1-7.15a6.52 6.52 0 0 1 1.2-3.68c0 0 2.47-3.53 2.47-3.53h1.58a15.41 15.41 0 0 1 2.13-1 26.52 26.52 0 0 1 10.11-1.89 25.28 25.28 0 0 1 12.14 2.86l1.53-.16 2.5 3.56a6.75 6.75 0 0 1 1.31 3.84z" class="w"/><path d="M349.36 129.75c0 2.2-1.46 4.4-4.36 6.07a23.2 23.2 0 0 1-21 0c-2.9-1.68-4.35-3.87-4.35-6.07a5.56 5.56 0 0 1 1-3.12 9.67 9.67 0 0 1 3.32-2.93 23 23 0 0 1 21 0c2.93 1.66 4.4 3.85 4.4 6.05z" class="AL"/><g class="AA"><path d="M334.5 136.7a19.64 19.64 0 0 1-9.69-2.29c-2.26-1.3-3.55-3-3.55-4.67a4 4 0 0 1 .75-2.21 8.24 8.24 0 0 1 2.79-2.44 21.52 21.52 0 0 1 19.38 0c2.26 1.3 3.56 3 3.56 4.66s-1.3 3.36-3.56 4.67a19.57 19.57 0 0 1-9.68 2.28zm0-13.46a19.5 19.5 0 0 0-9.47 2.25 7.86 7.86 0 0 0-2.64 2.3 3.52 3.52 0 0 0-.67 1.95c0 1.5 1.2 3.05 3.32 4.27a21.16 21.16 0 0 0 18.91 0c2.1-1.22 3.32-2.78 3.32-4.27s-1.2-3.05-3.3-4.26a19.48 19.48 0 0 0-9.46-2.24zM324 135.82l-1.9 5.18c-3.42-2-5.1-4.56-5.1-7.15a6.52 6.52 0 0 1 1.2-3.68l2.47-3.53a5.56 5.56 0 0 0-1 3.12c.01 2.2 1.44 4.36 4.36 6.07z"/></g><g class="B"><path d="M232.15 173.83v10l31.95 18.87v-9.98l-31.95-18.88z" class="AK"/><path d="M264.1 192.7v9.98l34.33-19.82v-10L264.1 192.7z" class="p"/><path d="M232.15 173.83l31.95 18.88 34.33-19.83-32-18.87-34.28 19.82z" class="AD"/></g><path d="M283.35 173.46c0 2.58-1.7 5.16-5.12 7.14a27.27 27.27 0 0 1-24.75 0c-3.42-2-5.12-4.56-5.12-7.14a6.61 6.61 0 0 1 1.2-3.69c0 0 2.48-3.53 2.48-3.53h1.58a15.86 15.86 0 0 1 2.12-1 26.56 26.56 0 0 1 10.11-1.88 25.22 25.22 0 0 1 12.14 2.85l1.54-.16 2.5 3.56a6.76 6.76 0 0 1 1.31 3.85z" class="w"/><path d="M280.7 169.36c0 2.2-1.46 4.4-4.36 6.07a23.2 23.2 0 0 1-21 0c-2.9-1.68-4.36-3.87-4.36-6.07a5.5 5.5 0 0 1 1-3.12 9.67 9.67 0 0 1 3.32-2.93 23 23 0 0 1 21 0c2.94 1.66 4.4 3.85 4.4 6.05z" class="AL"/><g class="AA"><path d="M265.85 176.32a19.63 19.63 0 0 1-9.68-2.29c-2.26-1.3-3.55-3-3.55-4.67a4 4 0 0 1 .75-2.21 8.31 8.31 0 0 1 2.78-2.44 21.5 21.5 0 0 1 19.39 0c2.26 1.3 3.55 3 3.55 4.65s-1.3 3.36-3.55 4.67a19.64 19.64 0 0 1-9.69 2.29zm0-13.46a19.55 19.55 0 0 0-9.47 2.25 7.82 7.82 0 0 0-2.63 2.3 3.52 3.52 0 0 0-.67 1.95c0 1.5 1.2 3.05 3.32 4.27a21.16 21.16 0 0 0 18.91 0c2.1-1.22 3.32-2.78 3.32-4.27s-1.2-3.05-3.32-4.26a19.54 19.54 0 0 0-9.46-2.24zm-10.5 12.57l-1.88 5.17c-3.42-2-5.12-4.56-5.12-7.14a6.61 6.61 0 0 1 1.2-3.69l2.48-3.53a5.5 5.5 0 0 0-1 3.12c-.04 2.2 1.42 4.4 4.32 6.07z"/></g><g class="u"><path d="M654.62 144.5v7.62L333.16 338.6v-8.02L654.62 144.5z"/><path d="M654.6 144.5v7.62L333.17 338.6v-8.02l85.6-49.56 6.62-3.93L654.6 144.5z"/></g><path d="M115.67 205.17v7.63l217.5 125.8v-8.02l-217.5-125.4z" class="x"/><path d="M654.6 136.88v7.62L333.17 330.76v-8L654.6 136.88z" class="p"/><path d="M427.17 276.2v202.15l-6.63 3.86V280.14l6.63-3.93z" class="u"/><path d="M434 264.47V474.4l-6.82 3.97V268.4l6.82-3.93z" class="p"/><path d="M115.67 197.35v7.62l217.5 125.8v-8.02l-217.5-125.4z" class="v"/><path d="M561.96 198.28v202.06l-6.62 3.84V202.2l6.62-3.93z" class="u"/><path d="M568.8 188.4v207.98l-6.83 3.97V191.1l6.83-2.7z" class="p"/><g class="AA"><path class="c q" d="M517.08 262.85v150.6h-15.83V285.18L448 316.22v-13.1l55.48-32.32 13.6-7.94zm-130.94 70.17V446.7h-9.77v-97.85L344.1 367.4v-9.9l42.03-24.5z"/></g><g class="p"><path class="H z" d="M503.46 270.8l-2.2 1.3-53.28 31 23.7-13.84 3.68-2.16 26.8-15.6z"/><path d="M482.24 356.62V330.7l14.52-8.4v25.94zm.54-25.62v24.67l13.44-7.75v-24.67zm-33.68 44.83V349.9l14.5-8.38v25.93zm.54-25.62v24.68l13.46-7.78v-24.65z"/></g><path d="M419.9 214.2c0 15.3-12.42 34.9-27.74 43.74s-27.73 3.6-27.73-11.72 12.4-34.9 27.73-43.75 27.74-3.6 27.74 11.73z" class="AE"/><path d="M392.16 255.46c-13.92 8-25.24 3.25-25.24-10.67s11.32-31.78 25.24-39.8 25.24-3.25 25.24 10.67-11.3 31.77-25.24 39.8z" fill="#fde79d"/><g class="y"><path d="M397.25 228.74a3.58 3.58 0 0 1-1.74 2.73c-.95.55-1.73.23-1.73-.73a3.59 3.59 0 0 1 1.73-2.73c.96-.55 1.74-.23 1.74.73zm16.72-16.64a3.65 3.65 0 0 1-1.77 2.79c-1 .56-1.77.23-1.77-.75a3.65 3.65 0 0 1 1.77-2.78c.98-.56 1.77-.26 1.77.74zm-6.6 15.27a3.53 3.53 0 0 1-1.69 2.67c-.94.54-1.7.22-1.7-.7a3.52 3.52 0 0 1 1.7-2.68c.93-.54 1.7-.22 1.7.72zm-32.54 19.68a4.17 4.17 0 0 1-2 3.17c-1.1.64-2 .26-2-.85a4.15 4.15 0 0 1 2-3.17c1.1-.64 2-.26 2 .85z"/><use xlink:href="#C"/><path d="M390.1 218.83a3.59 3.59 0 0 1-1.73 2.73c-1 .55-1.74.23-1.74-.73a3.58 3.58 0 0 1 1.74-2.73c.94-.55 1.73-.23 1.73.73z"/></g><path d="M377.15 242.92a2.34 2.34 0 0 1-2.36-2.63 8 8 0 0 1 3.89-6.18 4.31 4.31 0 0 1 2.08-.63 2.35 2.35 0 0 1 2.33 2.63 8 8 0 0 1-3.9 6.18 4.15 4.15 0 0 1-2.04.63z" class="r"/><use xlink:href="#D" class="o"/><g class="s"><path d="M379.25 238.18a.62.62 0 0 1-.3.47c-.16.1-.3 0-.3-.13a.63.63 0 0 1 .3-.47c.14-.1.3-.04.3.13zm-2.83 1.56a.65.65 0 0 1-.3.48c-.17.1-.3 0-.3-.13a.63.63 0 0 1 .31-.48c.16-.1.3-.03.3.13zm1.68 1.14a.44.44 0 0 1-.2.32c-.1.06-.2 0-.2-.1a.39.39 0 0 1 .19-.31c.06-.06.2-.03.2.08zm4-5a.4.4 0 0 1-.2.31c-.1.06-.2 0-.2-.08a.44.44 0 0 1 .2-.32c.08-.06.2-.02.2.1zm-4.26 1a.42.42 0 0 1-.19.32c-.1.06-.2 0-.2-.1a.4.4 0 0 1 .2-.31c.1-.06.2-.03.2.08zm3.94.8a.59.59 0 0 1-.3.47c-.17.1-.3 0-.3-.12a.62.62 0 0 1 .3-.48c.17-.1.3-.04.3.13zm-1.18-2.08a.86.86 0 0 1-.41.65c-.23.13-.42.05-.42-.18a.85.85 0 0 1 .42-.65c.23-.13.4-.05.4.18zm-.32 4.43a.84.84 0 0 1-.41.65c-.23.13-.42.06-.42-.17a.89.89 0 0 1 .42-.66c.22-.13.4-.05.4.18z"/></g><path d="M389.83 244.64a2.34 2.34 0 0 1-2.35-2.63 8 8 0 0 1 3.89-6.18 4.17 4.17 0 0 1 2.08-.64 2.35 2.35 0 0 1 2.35 2.64 8 8 0 0 1-3.89 6.18 4.25 4.25 0 0 1-2.08.63z" class="r"/><path d="M395.26 237.83a7.51 7.51 0 0 1-3.62 5.71c-2 1.15-3.62.46-3.62-1.53a7.5 7.5 0 0 1 3.62-5.71c2-1.2 3.62-.47 3.62 1.53z" class="o"/><g class="s"><path d="M391.94 239.9a.62.62 0 0 1-.3.48c-.17.1-.3 0-.3-.13a.62.62 0 0 1 .3-.48c.17-.1.3-.04.3.13zm-2.84 1.56a.61.61 0 0 1-.3.47c-.16.1-.3 0-.3-.13a.65.65 0 0 1 .3-.47c.18-.1.3-.04.3.13z"/><use xlink:href="#E"/><use xlink:href="#F"/><path d="M390.53 238.6a.4.4 0 0 1-.2.31c-.1.07-.2 0-.2-.08a.44.44 0 0 1 .2-.32c.1-.06.2-.02.2.1zm3.94.8a.65.65 0 0 1-.3.48c-.17.1-.3 0-.3-.13a.61.61 0 0 1 .3-.47c.16-.1.3-.04.3.12zm-1.17-2.08a.85.85 0 0 1-.42.65c-.22.14-.4.06-.4-.17a.87.87 0 0 1 .41-.65c.22-.14.42-.04.42.17zm-.33 4.42a.88.88 0 0 1-.41.66c-.23.13-.42 0-.42-.18a.85.85 0 0 1 .42-.65c.22-.13.4-.05.4.17z"/></g><path d="M402.58 224.4a2.35 2.35 0 0 1-2.36-2.63 8 8 0 0 1 3.9-6.18 4.25 4.25 0 0 1 2.08-.63 2.34 2.34 0 0 1 2.35 2.63 8 8 0 0 1-3.89 6.18 4.18 4.18 0 0 1-2.08.63z" class="r"/><path d="M408 217.6a7.5 7.5 0 0 1-3.62 5.71c-2 1.15-3.62.47-3.62-1.53a7.51 7.51 0 0 1 3.62-5.66c2-1.2 3.62-.52 3.62 1.48z" class="o"/><g class="s"><path d="M404.7 219.66a.62.62 0 0 1-.3.47c-.17.1-.3 0-.3-.13a.61.61 0 0 1 .3-.47c.17-.1.3-.04.3.13zm-2.85 1.56a.62.62 0 0 1-.3.48c-.16.1-.3 0-.3-.13a.65.65 0 0 1 .3-.48c.17-.1.3.02.3.13z"/><use xlink:href="#F" x="8.73" y="-15.22"/><path d="M407.5 217.35a.4.4 0 0 1-.2.31c-.1.06-.2 0-.2-.08a.44.44 0 0 1 .2-.32c.1-.06.2-.02.2.1z"/><use xlink:href="#F" x="8.53" y="-19.23"/><path d="M407.22 219.16a.63.63 0 0 1-.3.47c-.17.1-.3 0-.3-.12a.62.62 0 0 1 .3-.48c.17-.1.3-.04.3.13zm-1.12-2.06a.87.87 0 0 1-.42.66c-.22.13-.4.05-.4-.18a.87.87 0 0 1 .41-.65c.18-.16.42-.08.42.17zm-.38 4.4a.87.87 0 0 1-.41.65c-.23.13-.42.06-.42-.17a.89.89 0 0 1 .42-.66c.22-.13.4-.05.4.18z"/></g><path d="M402.4 203.8a3.06 3.06 0 0 1-1.48 2.34c-.83.48-1.5.2-1.5-.63a3.05 3.05 0 0 1 1.49-2.34c.82-.48 1.48-.2 1.48.63z" class="y"/><g class="u"><path d="M399.14 231.35l-1.23 4.37 3.15-2.47-1.92-1.9zm-4.22-7.1l-1.18-2.72 2.26-.8-1.08 3.53zm-8.02 5.4c.1.37-1.54 7-1.54 7l3.15-1.18zm-9.34 18.72l-4.67 5.46 1.93 1.28 2.74-6.74zm30.46-41.16l-4.66 5.46 1.92 1.28 2.74-6.74zm6.52 15.8l-4.67 5.46 1.92 1.28 2.75-6.74zm-38.78 5.38l-4.4 5.44 4.76-2.2-.36-3.23zm24.57 12.6l-5.5 6.56 5.87-2.42-.36-4.14zm-15.87-28.68l-5.5 6.57 5.87-2.42-.36-4.15z"/></g><g class="AF"><path d="M390.57 226.7c-.63.36-1.13 0-1.13-.86a2.67 2.67 0 0 1 1.13-2.16c.63-.37 1.13 0 1.13.86a2.69 2.69 0 0 1-1.13 2.16zm0-2.48a1.7 1.7 0 0 0-.59 1.31c0 .5.28.8.6.63a1.7 1.7 0 0 0 .59-1.31c0-.53-.27-.82-.6-.63zm-7.24 6.68c-.64.37-1.14 0-1.14-.87a2.7 2.7 0 0 1 1.14-2.18c.64-.37 1.14 0 1.14.87a2.7 2.7 0 0 1-1.14 2.18zm0-2.5a1.7 1.7 0 0 0-.6 1.33c0 .53.28.82.6.64a1.71 1.71 0 0 0 .59-1.33c0-.52-.27-.82-.6-.64zm29.6-8.83c-.48.28-.85 0-.85-.6a2 2 0 0 1 .85-1.6c.47-.27.85 0 .85.62a2 2 0 0 1-.85 1.59zm0-1.67a1 1 0 0 0-.31.74c0 .33.16.48.3.4a1 1 0 0 0 .31-.74c0-.32-.16-.47-.3-.4zm-41.58 26.2c-.67.4-1.2 0-1.2-.92a2.85 2.85 0 0 1 1.2-2.3c.67-.38 1.2 0 1.2.92a2.85 2.85 0 0 1-1.19 2.3zm0-2.68a1.84 1.84 0 0 0-.66 1.45c0 .58.3.9.66.7a1.86 1.86 0 0 0 .65-1.45c0-.57-.3-.9-.65-.7zm32.5 1.8c-.6.34-1.06 0-1.06-.8a2.54 2.54 0 0 1 1.06-2c.6-.34 1.06 0 1.06.8a2.5 2.5 0 0 1-1.06 1.99zm0-2.3a1.54 1.54 0 0 0-.52 1.18c0 .5.28.7.52.57a1.49 1.49 0 0 0 .52-1.17c0-.52-.3-.72-.52-.58zm-20.9 7.04c-.5.3-.9 0-.9-.67a2.12 2.12 0 0 1 .91-1.71c.5-.3.9 0 .9.67a2.12 2.12 0 0 1-.9 1.71zm0-1.84a1.11 1.11 0 0 0-.37.86c0 .37.2.54.37.44a1.14 1.14 0 0 0 .36-.86c0-.37-.2-.54-.36-.45z"/></g><use xlink:href="#B" class="o"/><g class="t"><path d="M380.77 221.6c.16.76-.5 3.32-.88 3.05a9.07 9.07 0 0 1-1.2-1.2 7.18 7.18 0 0 1 2-1.85zm2.56.98a3.78 3.78 0 0 1-.33 1.47 4.62 4.62 0 0 1-2.18.65c-.44-.1.6-2.67.93-3.48a1.19 1.19 0 0 1 .43-.06c.98 0 1.15.87 1.15 1.42zm-.66 2.22a7 7 0 0 1-2.5 2.67l-.28.17c0-.77.17-2.3.55-2.4a8.89 8.89 0 0 1 2.23-.44z"/><use xlink:href="#G"/></g><path d="M385.48 251.4a7.08 7.08 0 0 1-3.42 5.39c-1.9 1.1-3.42.45-3.42-1.44a7.11 7.11 0 0 1 3.42-5.4c1.9-1.1 3.42-.44 3.42 1.45z" class="o"/><g class="t"><path d="M382.38 250.42c.16.77-.5 3.33-.88 3.06a9.71 9.71 0 0 1-1.2-1.2 7.22 7.22 0 0 1 2-1.86zm2.56.98a3.79 3.79 0 0 1-.33 1.48 4.77 4.77 0 0 1-2.18.65c-.44-.1.6-2.67.93-3.5a1.42 1.42 0 0 1 .43-.05c.98 0 1.15.87 1.15 1.4zm-.66 2.24a7 7 0 0 1-2.5 2.67c-.1.05-.17.1-.28.16 0-.76.17-2.3.55-2.4a8.43 8.43 0 0 1 2.23-.43zm-2.83.46a10.27 10.27 0 0 1-.76 2.68.76.76 0 0 1-.33.05c-1 0-1.2-.93-1.2-1.47a5.62 5.62 0 0 1 .82-2.56 5.34 5.34 0 0 1 1.47 1.3z"/></g><path d="M400.95 210.3a7.1 7.1 0 0 1-3.42 5.39c-1.9 1.1-3.42.44-3.42-1.45a7.1 7.1 0 0 1 3.42-5.39c1.9-1.1 3.42-.44 3.42 1.45z" class="o"/><g class="t"><path d="M397.84 209.32c.17.76-.5 3.32-.87 3.05a8 8 0 0 1-1.2-1.2 7.18 7.18 0 0 1 2-1.85zm2.56.98a3.72 3.72 0 0 1-.32 1.47 4.8 4.8 0 0 1-2.18.66c-.44-.1.6-2.68.92-3.5a1.27 1.27 0 0 1 .44-.06c.98 0 1.14.87 1.14 1.42z"/><path d="M399.75 212.53a6.94 6.94 0 0 1-2.51 2.67l-.27.17c0-.77.16-2.3.55-2.4a8.8 8.8 0 0 1 2.23-.44zm-2.83.44a10 10 0 0 1-.77 2.67.61.61 0 0 1-.32.06c-1 0-1.2-.93-1.2-1.48a5.59 5.59 0 0 1 .81-2.56 5.56 5.56 0 0 1 1.48 1.31z"/></g><path d="M409.1 233.17a7.12 7.12 0 0 1-3.42 5.4c-1.9 1.1-3.42.44-3.42-1.45a7.08 7.08 0 0 1 3.42-5.39c1.9-1.1 3.42-.44 3.42 1.44z" class="o"/><g class="t"><path d="M406 232.2c.16.76-.5 3.32-.87 3.05a8 8 0 0 1-1.2-1.2 7 7 0 0 1 2-1.85zm2.56.98a4 4 0 0 1-.32 1.47 4.65 4.65 0 0 1-2.18.65c-.44-.1.6-2.67.92-3.48a1.27 1.27 0 0 1 .44-.06c.98 0 1.14.87 1.14 1.42zm-.66 2.22a6.94 6.94 0 0 1-2.51 2.67l-.27.17c0-.77.16-2.3.54-2.4a8.87 8.87 0 0 1 2.24-.44zm-2.8.45a10.32 10.32 0 0 1-.76 2.67.76.76 0 0 1-.33 0c-1 0-1.2-.92-1.2-1.47a5.59 5.59 0 0 1 .81-2.56 5.38 5.38 0 0 1 1.47 1.36z"/></g><path d="M603.45 107.18c0 15.3-12.42 34.9-27.74 43.75s-27.74 3.6-27.74-11.73 12.42-34.9 27.74-43.75 27.74-3.6 27.74 11.73z" class="AE"/><path d="M575.7 148.43c-13.92 8-25.24 3.25-25.24-10.67s11.32-31.78 25.24-39.8 25.24-3.25 25.24 10.67-11.32 31.78-25.24 39.8z" fill="#fde79d"/><g class="y"><path d="M580.8 121.7a3.57 3.57 0 0 1-1.73 2.73c-1 .55-1.73.23-1.73-.73a3.59 3.59 0 0 1 1.73-2.73c.96-.55 1.73-.23 1.73.73zm16.7-16.6a3.66 3.66 0 0 1-1.76 2.79c-1 .56-1.77.23-1.77-.75a3.65 3.65 0 0 1 1.77-2.78c.97-.6 1.76-.26 1.76.74zm-6.57 15.24a3.51 3.51 0 0 1-1.7 2.67c-.93.55-1.7.22-1.7-.7a3.53 3.53 0 0 1 1.69-2.68c.94-.5 1.7-.22 1.7.72zm-32.53 19.68a4.17 4.17 0 0 1-2 3.17c-1.1.64-2 .26-2-.85a4.18 4.18 0 0 1 2-3.17c1.1-.64 2-.26 2 .85z"/><use xlink:href="#C" x="183.55" y="-107.04"/><path d="M573.63 111.8a3.58 3.58 0 0 1-1.74 2.73c-.95.55-1.73.23-1.73-.73a3.59 3.59 0 0 1 1.73-2.69c.96-.6 1.74-.27 1.74.7z"/></g><path d="M560.7 135.9a2.35 2.35 0 0 1-2.35-2.64 8 8 0 0 1 3.89-6.18 4.28 4.28 0 0 1 2.08-.63 2.35 2.35 0 0 1 2.36 2.63 8 8 0 0 1-3.9 6.18 4.17 4.17 0 0 1-2.08.64z" class="r"/><path d="M566.1 129.1a7.5 7.5 0 0 1-3.62 5.71c-2 1.15-3.62.47-3.62-1.53a7.51 7.51 0 0 1 3.62-5.71c2.03-1.18 3.62-.47 3.62 1.53z" class="o"/><g class="s"><path d="M562.8 131.1a.62.62 0 0 1-.3.47c-.17.1-.3 0-.3-.13a.62.62 0 0 1 .3-.47c.17-.06.3 0 .3.13zm-2.84 1.6a.62.62 0 0 1-.3.48c-.16.1-.3 0-.3-.13a.62.62 0 0 1 .3-.47c.17-.1.3-.04.3.12zm1.64 1.16a.42.42 0 0 1-.2.31c-.1.06-.2 0-.2-.1a.42.42 0 0 1 .2-.31c.1-.06.2-.02.2.1zm4-5.02a.4.4 0 0 1-.2.31c-.1.06-.2 0-.2-.08a.44.44 0 0 1 .2-.32c.1-.06.2-.02.2.1z"/><use xlink:href="#F" x="166.65" y="-107.74"/><path d="M565.33 130.65a.59.59 0 0 1-.3.47c-.17.1-.3 0-.3-.12a.62.62 0 0 1 .3-.48c.17-.1.3-.04.3.13zm-1.18-2.07a.88.88 0 0 1-.41.65c-.23.13-.42.05-.42-.18a.87.87 0 0 1 .42-.65c.22-.13.4-.05.4.18zm-.32 4.42a.84.84 0 0 1-.41.65c-.23.14-.42.06-.42-.17a.89.89 0 0 1 .42-.66c.23-.13.4-.05.4.18z"/></g><path d="M573.38 137.6a2.35 2.35 0 0 1-2.36-2.63 8 8 0 0 1 3.9-6.18 4.17 4.17 0 0 1 2.07-.64 2.35 2.35 0 0 1 2.36 2.64 8 8 0 0 1-3.89 6.18 4.28 4.28 0 0 1-2.08.63z" class="r"/><path d="M578.8 130.8a7.51 7.51 0 0 1-3.62 5.71c-2 1.15-3.62.46-3.62-1.53a7.5 7.5 0 0 1 3.62-5.71c2-1.16 3.62-.47 3.62 1.53z" class="o"/><g class="s"><path d="M575.5 132.86a.65.65 0 0 1-.3.48c-.17.1-.3 0-.3-.13a.62.62 0 0 1 .3-.48c.16-.1.3-.03.3.13zm-2.85 1.57a.61.61 0 0 1-.3.47c-.16.1-.3 0-.3-.12a.65.65 0 0 1 .3-.48c.17-.1.3-.04.3.13z"/><use xlink:href="#E" x="183.55" y="-107.03"/><path d="M578.3 130.55a.42.42 0 0 1-.19.32c-.1.06-.2 0-.2-.1a.4.4 0 0 1 .2-.31c.1-.06.2-.03.2.08z"/><use xlink:href="#E" x="183.37" y="-111.04"/><path d="M578.02 132.36a.65.65 0 0 1-.3.48c-.17.1-.3 0-.3-.13a.61.61 0 0 1 .3-.47c.16-.13.3-.04.3.12zm-1.18-2.06a.89.89 0 0 1-.42.66c-.23.13-.4.05-.4-.18a.84.84 0 0 1 .41-.65c.23-.14.42-.01.42.17zm-.32 4.4a.87.87 0 0 1-.42.66c-.23.13-.4.05-.4-.18a.84.84 0 0 1 .41-.65c.23-.13.42-.05.42.17z"/></g><path d="M586.1 117.38a2.36 2.36 0 0 1-2.36-2.64 8 8 0 0 1 3.9-6.18 4.25 4.25 0 0 1 2.07-.63 2.34 2.34 0 0 1 2.36 2.63 8 8 0 0 1-3.89 6.18 4.23 4.23 0 0 1-2.08.64z" class="r"/><use xlink:href="#D" x="208.99" y="-125.54" class="o"/><g class="s"><path d="M588.24 112.63a.65.65 0 0 1-.3.47c-.17.1-.3 0-.3-.13a.61.61 0 0 1 .3-.47c.15-.1.3-.04.3.13zm-2.84 1.57a.62.62 0 0 1-.3.48c-.17.1-.3 0-.3-.13a.62.62 0 0 1 .3-.48c.17-.1.3-.03.3.13zm1.63 1.14a.42.42 0 0 1-.2.31c-.1.06-.2 0-.2-.1a.4.4 0 0 1 .2-.31c.1-.06.2-.03.2.1zm4.07-5.02a.42.42 0 0 1-.19.31c-.1.06-.2 0-.2-.08a.44.44 0 0 1 .2-.32c.05-.06.2-.02.2.1z"/><use xlink:href="#F" x="192.08" y="-126.26"/><path d="M590.77 112.1a.62.62 0 0 1-.3.47c-.17.1-.3 0-.3-.12a.63.63 0 0 1 .31-.48c.16-.07.3-.02.3.13zm-1.17-2a.87.87 0 0 1-.42.65c-.23.13-.4 0-.4-.18a.86.86 0 0 1 .41-.65c.23-.18.42-.1.42.18zm-.33 4.38a.85.85 0 0 1-.42.65c-.23.13-.4.06-.4-.17a.87.87 0 0 1 .41-.66c.24-.13.42-.05.42.18z"/></g><path d="M585.95 96.77a3.05 3.05 0 0 1-1.49 2.34c-.82.48-1.5.2-1.5-.63a3.08 3.08 0 0 1 1.49-2.34c.83-.48 1.5-.2 1.5.63z" class="y"/><g class="u"><path d="M582.7 124.32l-1.23 4.37 3.15-2.47-1.92-1.9zm-4.23-7.1l-1.18-2.72 2.26-.8-1.08 3.53zm-8.02 5.38c.1.37-1.54 7-1.54 7l3.14-1.18zm-9.35 18.73l-4.67 5.46 1.93 1.28 2.74-6.74zm30.47-41.17l-4.67 5.46 1.93 1.28 2.74-6.74zm6.5 15.8l-4.66 5.46 1.92 1.28 2.74-6.74zm-38.78 5.4l-4.4 5.43 4.76-2.2-.37-3.22zm24.58 12.6l-5.5 6.56 5.87-2.42-.36-4.14zM568 105.28l-5.5 6.57 5.87-2.42-.36-4.15z"/></g><g class="AF"><path d="M574.1 119.66c-.63.36-1.13 0-1.13-.86a2.67 2.67 0 0 1 1.13-2.16c.63-.37 1.12 0 1.12.86a2.69 2.69 0 0 1-1.12 2.16zm0-2.48a1.7 1.7 0 0 0-.59 1.31c0 .5.28.8.6.63a1.69 1.69 0 0 0 .58-1.31c.03-.53-.23-.8-.58-.63zm-7.22 6.7c-.64.37-1.14 0-1.14-.87a2.7 2.7 0 0 1 1.14-2.18c.64-.37 1.13 0 1.13.87a2.69 2.69 0 0 1-1.13 2.18zm0-2.5a1.7 1.7 0 0 0-.6 1.33c0 .53.27.83.6.64a1.71 1.71 0 0 0 .59-1.33c0-.52-.28-.82-.6-.64zm29.62-8.84c-.48.28-.85 0-.85-.6a2 2 0 0 1 .85-1.6c.47-.27.84 0 .84.62a2 2 0 0 1-.84 1.59zm0-1.67a1 1 0 0 0-.31.74c0 .33.16.48.3.4a1 1 0 0 0 .3-.74c0-.32-.16-.47-.3-.4zm-41.6 26.23c-.67.4-1.2 0-1.2-.92a2.85 2.85 0 0 1 1.19-2.3c.67-.38 1.2 0 1.2.92a2.85 2.85 0 0 1-1.2 2.3zm0-2.68a1.86 1.86 0 0 0-.65 1.45c0 .58.3.9.65.7a1.82 1.82 0 0 0 .66-1.44c0-.6-.3-.93-.66-.73zm32.52 1.78c-.6.34-1.06 0-1.06-.8a2.54 2.54 0 0 1 1.06-2c.6-.34 1.06 0 1.06.8a2.5 2.5 0 0 1-1.06 1.99zm0-2.3a1.51 1.51 0 0 0-.52 1.18c0 .5.27.7.52.57a1.52 1.52 0 0 0 .52-1.17c0-.52-.28-.72-.52-.58zm-20.92 7.03c-.5.3-.9 0-.9-.67a2.14 2.14 0 0 1 .9-1.71c.5-.3.9 0 .9.67a2.1 2.1 0 0 1-.91 1.71zm0-1.84a1.14 1.14 0 0 0-.36.86c0 .37.2.54.36.44a1.11 1.11 0 0 0 .37-.86c0-.37-.2-.54-.37-.42z"/></g><use xlink:href="#B" x="183.55" y="-107.03" class="o"/><g class="t"><path d="M564.3 114.57c.17.76-.5 3.32-.87 3.05a9.07 9.07 0 0 1-1.2-1.2 7.18 7.18 0 0 1 2-1.85zm2.58.98a3.78 3.78 0 0 1-.33 1.47 4.65 4.65 0 0 1-2.18.65c-.44-.1.6-2.67.93-3.48a1.19 1.19 0 0 1 .43-.06c.98-.02 1.15.87 1.15 1.42zm-.66 2.23a6.94 6.94 0 0 1-2.51 2.67l-.27.17c0-.77.17-2.3.55-2.4a8.89 8.89 0 0 1 2.23-.44zm-2.82.44a10 10 0 0 1-.77 2.67.7.7 0 0 1-.32.05c-1 0-1.2-.92-1.2-1.47a5.62 5.62 0 0 1 .82-2.56 5.69 5.69 0 0 1 1.47 1.31z"/></g><path d="M569.03 144.37a7.08 7.08 0 0 1-3.42 5.39c-1.9 1.1-3.42.45-3.42-1.44a7.08 7.08 0 0 1 3.42-5.39c1.9-1.1 3.42-.45 3.42 1.44z" class="o"/><g class="t"><path d="M565.92 143.4c.17.77-.5 3.33-.87 3.06a8.51 8.51 0 0 1-1.2-1.2 7.22 7.22 0 0 1 2-1.86zm2.56.97a3.77 3.77 0 0 1-.32 1.48 4.77 4.77 0 0 1-2.18.65c-.44-.1.6-2.67.92-3.5a1.51 1.51 0 0 1 .44 0c.98-.05 1.14.82 1.14 1.36zm-.65 2.23a6.94 6.94 0 0 1-2.51 2.67c-.1.05-.16.1-.27.16 0-.76.17-2.3.55-2.4a8.35 8.35 0 0 1 2.23-.43zm-2.83.44a10 10 0 0 1-.77 2.68.72.72 0 0 1-.32.05c-1 0-1.2-.93-1.2-1.47a5.5 5.5 0 0 1 .82-2.56 5.64 5.64 0 0 1 1.47 1.3z"/></g><path d="M584.5 103.27a7.11 7.11 0 0 1-3.42 5.39c-1.9 1.1-3.42.44-3.42-1.44a7.1 7.1 0 0 1 3.42-5.4c1.88-1.1 3.42-.44 3.42 1.45z" class="o"/><g class="t"><path d="M581.4 102.3c.16.76-.5 3.32-.87 3.05a8 8 0 0 1-1.2-1.2 7.19 7.19 0 0 1 2-1.85zm2.55.97a3.91 3.91 0 0 1-.32 1.47 4.8 4.8 0 0 1-2.18.66c-.44-.1.6-2.67.92-3.5a1.27 1.27 0 0 1 .44-.06c.98 0 1.14.88 1.14 1.42zm-.65 2.23a7 7 0 0 1-2.51 2.68c-.1.05-.16.1-.27.16 0-.76.16-2.3.54-2.4a8.87 8.87 0 0 1 2.24-.44zm-2.84.44a10.32 10.32 0 0 1-.76 2.67.65.65 0 0 1-.33.06c-1 0-1.2-.93-1.2-1.48a5.59 5.59 0 0 1 .81-2.56 5.38 5.38 0 0 1 1.47 1.31z"/></g><path d="M592.65 126.1a7.1 7.1 0 0 1-3.42 5.39c-1.88 1.1-3.42.44-3.42-1.45a7.12 7.12 0 0 1 3.42-5.39c1.86-1.05 3.42-.4 3.42 1.45z" class="o"/><g class="t"><path d="M589.55 125.17c.16.76-.5 3.32-.87 3.05a8 8 0 0 1-1.2-1.2 7.14 7.14 0 0 1 2-1.85zm2.55.93a3.74 3.74 0 0 1-.33 1.47 4.62 4.62 0 0 1-2.18.65c-.43-.1.6-2.67.93-3.48a1.25 1.25 0 0 1 .44-.06c1 .04 1.14.9 1.14 1.42zm-.64 2.28a7 7 0 0 1-2.51 2.67l-.27.17c0-.77.16-2.3.54-2.4a8.87 8.87 0 0 1 2.24-.44z"/><use xlink:href="#G" x="208.78" y="-96.43"/></g><g class="k z"><g clip-path="url(#A)"><path d="M315.1 400.45c.06 0-12.93-7.53-12.93-7.53a6.5 6.5 0 0 1-.36-.9c.94-2.38 2.6-4.43 3.63-6.78s1.46-6.16-.82-8.1a8.58 8.58 0 0 0-3.41-1.64 12.82 12.82 0 0 0-6.3-.28 7.76 7.76 0 0 0-5.05 3.57 5.9 5.9 0 0 0-.78 2.81c0 1 .18 2.35 1.32 2.42a29.67 29.67 0 0 0 .44 5.3c0 .25.1.5.15.7-1.25.6-3 2.22-3.3 6.4a68.1 68.1 0 0 0-.09 9.2 2 2 0 0 1-.84 1.79l-7.92 5.66-13-7.5-8 4.62-4.78-3.42a2.07 2.07 0 0 1-.83-1.79 68.81 68.81 0 0 0-.1-9.21c-.3-4.17-2.06-5.78-3.3-6.38 0-.23.1-.47.14-.72a32.06 32.06 0 0 0 .42-6.63.27.27 0 0 1 .34.21v-.5a10.4 10.4 0 0 0-.42-3 5.65 5.65 0 0 0-3.87-3.39 8 8 0 0 0-1-.22 13 13 0 0 0-8.61 2c-2 1.43-2.14 6.16-.77 7.87s3 4.33 3.1 4.5a3 3 0 0 1 0 .73c0 .2 0 .37-.05.57a7.59 7.59 0 0 1-.3.84c-.07.18-.13.37-.2.54s-5 3-5 3v-3.3l2.2-1.26a.45.45 0 0 0 .2-.42 1.27 1.27 0 0 0-.2-.66 1.36 1.36 0 0 0-.46-.49l-.25-.14-.23-.14a1.84 1.84 0 0 0-1.84-.18l-6.25 3.57v-11l-3.1-1.78a5.69 5.69 0 0 0 2.42-4.35v-19.26a2.8 2.8 0 0 1 1.26-2.18l.48-.28a1.49 1.49 0 0 0 .66-1.14c.05-1-13.22-8-13.22-8-.1-.2-.17-.43-.26-.64a12.7 12.7 0 0 0 .92.84 7.59 7.59 0 0 1-.16-2.38l1 .78a5.68 5.68 0 0 1 .05-4c.46-1.23 1.53-1.95 2-3.1.94-2.3.88-5.6-1.12-7.3a8.76 8.76 0 0 0-3.42-1.64 12.79 12.79 0 0 0-6.29-.28c-3.17.74-6.34 3.32-6.3 6.53a5.34 5.34 0 0 0 .71 2.59l1.1-1.8a33 33 0 0 0 .42 6.79c0 .25.1.5.14.72-1.22.7-3 2.3-3.28 6.47a68.26 68.26 0 0 0-.09 9.21 2.05 2.05 0 0 1-.84 1.79l-5.3 3.8-8.82-5.1-8.9 5.1-.83-.7s-1.18-4.55-3.85-11.65c-.05-.14-.1-.24-.16-.38a24.74 24.74 0 0 0-.76-1.75c-.1-.24-.22-.44-.33-.66a27.56 27.56 0 0 0-.64-1.14q-.15-.26-.3-.48a10.4 10.4 0 0 0-.75-1 10.85 10.85 0 0 0-1-1.11c-.35-.3-.54-.47-.73-.6l-.22-.16-.35-.2a2.43 2.43 0 0 1-.43-.36l-1.2.22c.1-.68.2-1.37.3-2a20 20 0 0 0-.12-5 9 9 0 0 0-.18-1.27 5.43 5.43 0 0 0-1.81-2.33 5.89 5.89 0 0 0-4.91-1.44 12 12 0 0 0-1.28.41c-2.34.9-3.9 2.56-3.76 5.22.16 3.1.46 10.14 0 11a28.07 28.07 0 0 0-3.29 2.24c-.16 0-1 1.14-.84 3.73l-5.94 3.44a.47.47 0 0 0-.19.43 1.44 1.44 0 0 0 .66 1.14l.48.28a2.77 2.77 0 0 1 1.26 2.18v19.26a5.27 5.27 0 0 0 .1.64l-2.15 1.23v30l-3 1.7 44.1 25.45 10.7-6.16 18.6 10.75 11.77-6.64v24.84l-.34.2 42.16 24.24c.3-.07 3.53-1.94 3.53-1.94l34.53-20 3.3-1.8V429.8a22.18 22.18 0 0 1 2.47-1.57 5.74 5.74 0 0 0 2.58-4.47V404.5a2.75 2.75 0 0 1 1.26-2.18l.48-.28a1.47 1.47 0 0 0 .66-1.14zm-97.74 24v-4.14l8.84-5.06v13.18l-1 .58zm-51.5-59.75a41 41 0 0 1 .59-7.16c0 0 .3-.2.7-.48a13.75 13.75 0 0 0 1.19-1l2.2 7.34 1.36 1.38-2.65 1.52a10.36 10.36 0 0 0-1.71.35c-.12-.07-.22-.17-.36-.17s-.48.23-.4.46a3.38 3.38 0 0 0-.84 0 12.89 12.89 0 0 1-.08-2.21zm37.74-2.9a1.79 1.79 0 0 0 .46-.49c-.05.8-.2 1.54-.27 2.3a6.33 6.33 0 0 0 0 1.68l-.13.25a1.67 1.67 0 0 1-.18.28 2.75 2.75 0 0 1-.22.26 2.39 2.39 0 0 1-.23.22 1.28 1.28 0 0 1-.26.17l-1.2.7-3-1.75zm-54.66 25.1l1.2.7v9.66l-1.2.7zm3.46 2l6.1 3.53-6.1 3.54zm-3.46 19.2v-7.4l1.2.7v2a.61.61 0 0 0 .34.47 1.8 1.8 0 0 0 1.6 0 .51.51 0 0 0 .31-.6v-.53l3 1.72zm82.2 49.9v-23.52l1.13.65v11.54l-.5.28 9.25 5.3zm3.38-12.6v-8.94l7.77 4.46zm58.08-5.2a1.92 1.92 0 0 0 1-.16.65.65 0 0 0 .35-.47c.17-.24.17 5.64.17 5.64l-1.78-1c.04-1.46.12-2.83.26-4.04zm-1.15-29.68c.2-.14.5-.4.5-.4l-.36 4.22c-.12.4-.8.88-.9.93l-4 2.33-2.8-1.6zm-43.68-1.2a1.56 1.56 0 0 0 .49.56l4.47 3.23-3.17 1.84-.54-.3a1.44 1.44 0 0 1-.25-.18 2.5 2.5 0 0 1-.24-.22 1.71 1.71 0 0 1-.21-.26 2.75 2.75 0 0 1-.19-.28l-.13-.25a16.59 16.59 0 0 0-.23-4zm53.77 49.6l-9.2-5.28c0-.76-.06-1.83-.08-3.12l1.84-1.06v4.1c-.07.2 0 .43.3.6a1.72 1.72 0 0 0 1.59 0 .59.59 0 0 0 .35-.46v-5.6l1.44-.83-1.44-.83v-8.32c.06-.18 5.2-3.14 5.2-3.14z" fill="#3f415b" opacity=".45"/></g></g><path d="M303.46 359.97v21.86l-6.42-3.7-153.8-89.04v-21.85l160.22 92.73z" class="AC"/><path d="M143.24 289.1l7.85 4.53v-21.86l-7.85-4.53v21.86z" class="x"/><path d="M160.33 299l7.85 4.53v-21.87l-7.85-4.53V299z" class="v"/><path d="M177.42 308.9l7.85 4.53v-21.86l-7.85-4.53v21.86z" class="x"/><path d="M194.5 318.8l7.85 4.53v-21.87l-7.85-4.52v21.86z" class="v"/><path d="M211.6 328.68l7.84 4.53v-21.86l-7.84-4.53v21.86z" class="x"/><path d="M228.7 338.58l7.84 4.53v-21.86l-7.84-4.53v21.86z" class="v"/><path d="M245.78 348.48l7.84 4.52v-21.86l-7.84-4.53v21.87z" class="x"/><path d="M262.87 358.37l7.84 4.53v-21.86l-7.84-4.53v21.86z" class="v"/><path d="M279.96 368.27l7.84 4.53v-21.87l-7.84-4.53v21.87z" class="x"/><path d="M303.46 360v21.84l-6.42-3.7V356.3l6.42 3.7z" class="v"/><path class="H p z" d="M611.1 224.6v3.5l-29.26 96.63-3 1.72v-83.08l32.26-18.77z"/><path class="c q AA" d="M620.87 197.27v113.68h-9.78V213.1l-32.26 18.55v-9.9l42.04-24.5z"/><path d="M582.8 320.67l26.36-15.22v-36.53l-26.36 15.22v36.53z" class="p"/><path d="M585.96 311.5c6.2-1 13.37-5 20-11.63l-10.13-17.96-8.6 25.7z" class="AE"/><path d="M587.3 307.62c5.46-1.2 11.56-4.6 17.4-10.1l-8.8-15.6z" fill="#fde3a7"/><g class="y"><path d="M596.44 287.54a1.51 1.51 0 0 1-.74 1.16c-.4.24-.73.1-.73-.3a1.55 1.55 0 0 1 .73-1.16c.4-.23.74-.12.74.3zm2.28 2.56a1.52 1.52 0 0 1-.73 1.15c-.4.24-.74.1-.74-.3a1.51 1.51 0 0 1 .74-1.15c.4-.2.73-.07.73.3zm-5.36 6.42a1.61 1.61 0 0 1-.76 1.21c-.42.24-.77.1-.77-.32a1.59 1.59 0 0 1 .77-1.21c.42-.24.76-.1.76.32zm2.44 6.25a1.24 1.24 0 0 1-.61 1c-.34.2-.6.08-.6-.25a1.27 1.27 0 0 1 .61-1c.34-.2.6-.1.6.25z"/></g><g class="u"><path d="M594.63 297.88c0 .15-.66 3-.66 3l1.34-.5zm7.6-1.68c0 .16-.65 3-.65 3l1.33-.5zm-1.62-3.33l-1.98 2.32.82.55 1.16-2.87zm-3.72-3.6l-3 .54.28.94 2.7-1.48z"/></g><g class="AF"><path d="M596.1 285.85c-.22.13-.4 0-.4-.28a.91.91 0 0 1 .39-.73c.2-.12.38 0 .38.3a.9.9 0 0 1-.38.72zm0-.78a.49.49 0 0 0-.16.37c0 .15.1.23.16.18a.47.47 0 0 0 .15-.36c0-.15-.08-.23-.15-.15zm-1.46 7.63c-.22.13-.4 0-.4-.3a1 1 0 0 1 .4-.77c.23-.13.4 0 .4.3a1 1 0 0 1-.41.77zm0-.84a.54.54 0 0 0-.17.41c0 .18.1.25.17.2a.49.49 0 0 0 .18-.4c0-.18-.1-.25-.18-.2z"/></g><path d="M590.23 306.32a1.18 1.18 0 0 1-1.18-1.32 4 4 0 0 1 1.95-3.1 2.11 2.11 0 0 1 1-.32 1.18 1.18 0 0 1 1.18 1.32 4 4 0 0 1-2 3.1 2.11 2.11 0 0 1-.95.32z" class="r"/><path d="M592.95 302.9a3.72 3.72 0 0 1-1.82 2.86c-1 .58-1.8.24-1.8-.76a3.77 3.77 0 0 1 1.77-2.89c1.05-.55 1.86-.2 1.86.8z" class="o"/><g class="s"><path d="M591.28 303.94a.31.31 0 0 1-.15.24c-.15-.15-.08-.26 0-.3s.15-.02.15.07zm-1.42.78a.29.29 0 0 1-.15.24c-.15-.15-.08-.25 0-.3s.15-.02.15.06zm2.7-1.02a.33.33 0 0 1-.15.24c-.15-.15-.08-.26 0-.3s.15-.02.15.06zm-.6-1.05a.44.44 0 0 1-.21.33c-.1.06-.2 0-.2-.1a.45.45 0 0 1 .2-.33c.12-.06.2-.02.2.1zm-.16 2.22a.41.41 0 0 1-.21.32c-.1.07-.2 0-.2-.08a.44.44 0 0 1 .2-.33c.12-.07.2-.03.2.1z"/></g><path d="M595.7 297.2a1.18 1.18 0 0 1-1.18-1.32 4 4 0 0 1 2-3.1 2.06 2.06 0 0 1 1-.32 1.18 1.18 0 0 1 1.18 1.32 4 4 0 0 1-2 3.1 2.11 2.11 0 0 1-1 .32z" class="r"/><path d="M598.4 293.77a3.75 3.75 0 0 1-1.81 2.86c-1 .58-1.8.24-1.8-.76a3.77 3.77 0 0 1 1.81-2.86c1-.58 1.8-.24 1.8.76z" class="o"/><g class="s"><path d="M596.75 294.8a.33.33 0 0 1-.15.24c-.15-.15-.08-.26 0-.3s.15-.02.15.07zm-1.42.8a.32.32 0 0 1-.15.24c-.15-.15-.08-.25 0-.3s.15-.02.15.06zm2.7-1.04a.33.33 0 0 1-.15.24c-.15-.15-.1-.26 0-.3s.15-.02.15.06zm-.6-1.04a.44.44 0 0 1-.21.33c-.1.06-.2 0-.2-.1a.45.45 0 0 1 .21-.33c.12-.06.2-.02.2.1zm-.16 2.22a.41.41 0 0 1-.21.32c-.1.07-.2 0-.2-.08a.43.43 0 0 1 .21-.33c.12-.07.2-.03.2.1z"/></g><path d="M600.56 298.18a3.53 3.53 0 0 1-1.72 2.7c-.94.55-1.7.23-1.7-.72a3.55 3.55 0 0 1 1.71-2.7c.95-.55 1.72-.23 1.72.72z" class="o"/><g class="t"><path d="M599 297.7c.08.38-.25 1.67-.44 1.53a4.86 4.86 0 0 1-.6-.6 3.68 3.68 0 0 1 1-.93z"/><path d="M600.28 298.18a1.9 1.9 0 0 1-.16.74 2.45 2.45 0 0 1-1.09.33c-.22-.06.3-1.34.46-1.75.7-.03.8.4.8.68zm-.32 1.12a3.46 3.46 0 0 1-1.26 1.34c-.14-.3-.05-1.06.14-1.12a4.19 4.19 0 0 1 1.12-.22zm-1.42.22a5.28 5.28 0 0 1-.39 1.34.64.64 0 0 1-.76-.71.72.72 0 1 1 1.15-.63z"/></g><path d="M346.56 456.34l26.36-15.22V404.6l-26.36 15.22v36.53z" class="p"/><path d="M349.72 447.18c6.2-1 13.36-5 20.05-11.63l-10.13-17.96-8.6 25.7z" class="AE"/><path d="M351.1 443.3c5.47-1.2 11.57-4.6 17.4-10.1l-8.8-15.6z" fill="#fde3a7"/><g class="y"><path d="M360.4 422.5a1.52 1.52 0 0 1-.74 1.16c-.4.23-.73.1-.73-.3a1.52 1.52 0 0 1 .73-1.16c.42-.23.74-.1.74.3zm2.3 2.6a1.51 1.51 0 0 1-.74 1.16c-.4.24-.73.1-.73-.3a1.55 1.55 0 0 1 .73-1.16c.4-.24.74-.1.74.3zm-5.37 6.4a1.59 1.59 0 0 1-.77 1.21c-.42.24-.76.1-.76-.33a1.57 1.57 0 0 1 .76-1.2c.43-.25.77-.06.77.32zm2.45 6.24a1.27 1.27 0 0 1-.62 1c-.33.2-.6.08-.6-.26a1.28 1.28 0 0 1 .61-1c.34-.2.62-.08.62.26z"/></g><g class="u"><path d="M358.6 432.84c0 .16-.65 3-.65 3l1.34-.5zm7.6-1.67c0 .15-.66 3-.66 3l1.34-.5zm-1.6-3.33l-1.98 2.32.82.54 1.16-2.86zm-3.73-3.6l-3 .54.3.94 2.7-1.48z"/></g><g class="AF"><path d="M360.1 420.82c-.22.12-.4 0-.4-.28a.88.88 0 0 1 .39-.73c.2-.12.38 0 .38.28a.9.9 0 0 1-.38.73zm0-.78a.45.45 0 0 0-.16.36c0 .16.08.23.16.2a.49.49 0 0 0 .15-.36c-.03-.12-.15-.23-.15-.2zm-1.5 7.64c-.23.13-.4 0-.4-.3a1 1 0 0 1 .41-.77c.23-.13.4 0 .4.3a.94.94 0 0 1-.4.77zm0-.84a.55.55 0 0 0-.18.41c0 .18.1.25.18.2a.54.54 0 0 0 .17-.41c0-.18-.1-.25-.17-.2z"/></g><path d="M354.2 441.3a1.18 1.18 0 0 1-1.19-1.32 4 4 0 0 1 1.95-3.1 2.12 2.12 0 0 1 1.05-.32 1.18 1.18 0 0 1 1.18 1.32 4 4 0 0 1-2 3.1 2.11 2.11 0 0 1-.99.32z" class="r"/><path d="M356.9 437.87a3.77 3.77 0 0 1-1.81 2.86c-1 .58-1.8.24-1.8-.77a3.77 3.77 0 0 1 1.8-2.85c1-.58 1.82-.24 1.82.76z" class="o"/><g class="s"><path d="M355.25 438.9a.3.3 0 0 1-.15.23c-.15-.14-.08-.25 0-.3s.15-.02.15.07zm-1.42.8a.33.33 0 0 1-.15.24c-.15-.15-.08-.26 0-.3s.15-.02.15.06zm2.7-1.04a.3.3 0 0 1-.15.23c-.15-.14-.1-.25 0-.3s.15-.02.15.07zm-.6-1.04a.47.47 0 0 1-.21.33c-.1.06-.2 0-.2-.1a.45.45 0 0 1 .21-.33c.1-.07.2-.03.2.1zm-.16 2.2a.43.43 0 0 1-.21.33c-.12.07-.2 0-.2-.1a.41.41 0 0 1 .21-.32c.1-.07.2-.03.2.08z"/></g><path d="M359.66 432.1a1.18 1.18 0 0 1-1.18-1.32 4 4 0 0 1 1.95-3.09 2.11 2.11 0 0 1 1-.32 1.18 1.18 0 0 1 1.18 1.32 4 4 0 0 1-1.95 3.1 2.14 2.14 0 0 1-1 .31z" class="r"/><path d="M362.38 428.74a3.77 3.77 0 0 1-1.81 2.86c-1 .58-1.82.24-1.82-.77a3.78 3.78 0 0 1 1.82-2.86c1-.57 1.8-.23 1.8.77z" class="o"/><g class="s"><path d="M360.72 429.77a.32.32 0 0 1-.15.24c-.15-.14-.1-.25 0-.3s.15-.02.15.06zm-1.42.8a.33.33 0 0 1-.15.24c-.15-.15-.1-.26 0-.3s.15-.02.15.06zm2.7-1.03a.29.29 0 0 1-.16.23c-.15-.14-.08-.25 0-.3s.16-.02.16.07zm-.6-1.03a.42.42 0 0 1-.2.32c-.12.07-.2 0-.2-.08a.42.42 0 0 1 .21-.33c.1-.07.2-.03.2.1zm-.17 2.2a.44.44 0 0 1-.2.33c-.12.07-.2 0-.2-.1a.41.41 0 0 1 .21-.32c.1-.07.2-.03.2.08z"/></g><path d="M364.52 433.1a3.58 3.58 0 0 1-1.71 2.7c-1 .55-1.7.22-1.7-.72a3.55 3.55 0 0 1 1.71-2.71c.94-.5 1.7-.18 1.7.73z" class="o"/><g class="t"><path d="M362.97 432.66c.08.38-.25 1.66-.44 1.53a4.86 4.86 0 0 1-.6-.6 3.54 3.54 0 0 1 1-.93z"/><path d="M364.25 433.1a1.9 1.9 0 0 1-.16.74 2.36 2.36 0 0 1-1.1.32c-.2-.05.3-1.33.47-1.74.7.01.8.45.8.68zm-.33 1.17a3.51 3.51 0 0 1-1.25 1.34c-.14-.3-.06-1.07.13-1.12a4.27 4.27 0 0 1 1.12-.22zm-1.42.23a4.9 4.9 0 0 1-.38 1.34c-.68 0-.76-.44-.76-.7a.72.72 0 1 1 1.14-.63z"/></g><g class="p"><path d="M168.1 346.05a32.19 32.19 0 0 1 7.24-2.23l.47 1.18a32.15 32.15 0 0 0-5.79 1.69l3.73 6a31 31 0 0 1 4.63-1.41l.63 1.15a30.1 30.1 0 0 0-4.56 1.39l4.43 7.2-1 .4zm21.48 8.45a34.69 34.69 0 0 0-5.82.41l1.1 4.5-1.12.2a124.83 124.83 0 0 1-3.38-16.52 23.39 23.39 0 0 1 1.74-.12 195.78 195.78 0 0 1 11.81 16l-1.25-.05-3.07-4.44zm-.85-1.18a191.55 191.55 0 0 0-7-9.16l1.75 9.52a34.67 34.67 0 0 1 5.25-.36zm11.17-6.98l-.63.65a9.06 9.06 0 0 0-4.41-2.26c-2.1-.36-3.12.5-2.52 2.18s1.74 2.4 4.86 3.78 5.14 2.88 5.9 5.64-.67 4-3.5 3.5a11.12 11.12 0 0 1-5.23-2.56l.37-.82a9.81 9.81 0 0 0 4.45 2.2c2 .34 3.17-.5 2.57-2.6-.54-1.9-1.7-3-4.77-4.3-3.42-1.5-5.18-2.65-6.05-5s.5-3.76 3.5-3.24a10.79 10.79 0 0 1 5.48 2.85zm13.5 4.42l-5.2-2.1 2.62 14-1.28-.46-2.86-14.07-5.18-1.62-.3-1.2a75.23 75.23 0 0 1 12.26 4.4l-.04 1.05zm10.7 4.34c3.64 2.1 5.46 3.25 9.08 5.74l-.3.8a95.57 95.57 0 0 0-7.2-4.61l-.1 5.33a92.93 92.93 0 0 1 5.8 3.67l-.1.94a102.11 102.11 0 0 0-5.7-3.62l-.1 6.35-1.32-.77-.04-13.84zm23.42 24.26c-1.45 3.46-4.57 3.27-8.22.3s-5.68-6.88-5-11.07 4-4.4 8.32-.92 6.4 8.13 4.9 11.68zm-11.75-9.66c-.66 3.7 1 6.86 3.77 9.1 2.92 2.36 5.27 2.47 6.5-.77s-.3-6.73-3.7-9.5-5.9-2.6-6.57 1.16zm27.2 25.93c-2.42 2.44-5.88 1.24-9.3-2.44s-4.77-7.6-3.1-10.94 5.52-2.42 9.52 1.86 5.36 9 2.88 11.52zm-11-12c-1.58 2.9-.45 6.1 2.14 8.88 2.72 2.94 5.33 3.8 7.47 1.48s1.18-5.8-2-9.22-5.96-4.06-7.57-1.1zm23.7 29.35c-4 1.7-7.8-2.3-10.33-5.8a121.45 121.45 0 0 0-2.7-3.62l8.07-6.55 3 4c3.5 4.83 5.98 10.28 1.96 11.98zm-4.22-13.76l-7.1 5.34 1.68 2.28c2.16 3 5 5.92 8.45 4.3s1.38-5.87-1.2-9.45l-1.83-2.48zm-77.48-26.38c0 3.1-2.16 3-5.16 1.3l-2-1.14v5.4l-1.2-.7v-13.82l3.25 1.88c3.23 1.85 5.12 4.2 5.12 7.08zm-1.27-.72c0-2.34-1.43-4-3.85-5.4l-2-1.16V372l2 1.14c2.23 1.33 3.85 1.5 3.85-1.05zm5.63 12.92l-1.2-.7v-13.82l1.2.7zm11.68-6.1l-7.34 7.52 7.22 4.17-.16 1-8.45-4.88v-1l7.4-7.48-6.6-3.86v-1l8 4.6zm10.23 5.9l-7.34 7.52 7.22 4.17-.16 1-8.45-4.87v-1l7.4-7.5-6.63-3.83v-1.05l8 4.6zm10.1 5.84l-5.67-3.28v5.15l4.9 2.83v1l-4.9-2.83v5.65l5.95 3.44v1l-7.16-4.14v-13.8l7 4zm7.43 10.9L235 400v6.2l-1.2-.7v-13.8l3.34 1.93c3.33 1.93 4.92 4.16 4.92 6.6 0 2-1.12 2.5-3.08 1.87l3.8 8.6-1.43-.83zm-.47-1.26c2.2 1.27 3.47 1.14 3.47-.88 0-1.83-1-3.36-3.67-4.88l-2.1-1.2v5.65zm9.6 12.76l-1.2-.7v-13.84l1.2.7zm10.82 2.45l-5.8-3.35-1.2 3.07-1.23-.7 4.6-11.15 1.52.87 4.6 16.47-1.27-.73zm-.32-1.2l-2.56-9.5-2.58 6.54z"/></g></g></g></svg>