<svg xmlns="http://www.w3.org/2000/svg" viewBox="0 0 218.52 176.73" xmlns:v="https://vecta.io/nano"><style>.A{isolation:isolate}.E{mix-blend-mode:multiply}</style><g class="A"><g><path d="M218.52 77.73L158.9 43.35 3.65 133.14l59.48 34.3 155.4-89.7z" fill="#d1d3d4"/><path d="M63.13 176.73v-9.3l-59.48-34.3v9.3l59.48 34.3z" fill="#e6e7e8"/><path d="M63.13 167.43v9.3l155.4-89.7v-9.3l-155.4 89.7z" fill="#f1f2f2"/><path class="E" d="M215.78 66.23l-48.3-27.8L11.3 128.75l48.17 27.72 156.3-90.24z" fill="#414042" opacity=".3"/><path d="M58 152.25L3.27 94.2 161.8 3.27l53.45 58.2L58 152.25z" fill="#2d3655"/><g fill="#f2f2f2"><path d="M.9 96.43l54.74 58.05a3.23 3.23 0 0 0 2.38 1 3.2 3.2 0 0 0 1.63-.44L216.88 64.3a3.29 3.29 0 0 0 1.6-2.34 3.23 3.23 0 0 0-.83-2.7L164.2 1.07a3.22 3.22 0 0 0-2.41-1.06 3.28 3.28 0 0 0-1.62.43L1.64 91.36a3.29 3.29 0 0 0-1.61 2.36 3.25 3.25 0 0 0 .86 2.71zM161.83 3.3l53.45 58.2-157.24 90.78L3.3 94.22z"/><path d="M143.48 12.8l1.47-.9 54.8 59.62-1.5.87-54.77-59.6zm-18.52 10.32l1.48-.9 54.78 59.63-1.48.86-54.78-59.6zm-18.5 10.33l1.47-.88 54.8 59.62-1.5.87-54.77-59.6zm-18.1 10.68l1.47-.9 54.8 59.62-1.48.87-54.78-59.6zM70.1 54.66l1.47-.88 54.8 59.62-1.5.87-54.77-59.6zM53 65.2l1.47-.9 54.8 59.62-1.48.87L53 65.2zm-18 9.6l1.47-.9 54.8 59.62-1.5.87L35 74.8zm-16.66 9.56l1.48-.88 54.8 59.62-1.5.87-54.78-59.6z"/></g><path class="E" d="M24.26 121.22l-15.42 8.92-6.53-3.86 17.14-10.1 4.8 5.05z" fill="#414042" opacity=".3"/><g fill="#f1f2f2"><path d="M17.23 110.923l160.258-92.525.4.7L17.64 111.633zm3.255 3.783l160.387-92.3.4.7-160.387 92.3zm17.408 18.38l160.193-92.637.4.7-160.193 92.637zm2.83 3.302l160.2-92.6.4.7-160.2 92.6z"/></g></g></g></svg>