<svg xmlns="http://www.w3.org/2000/svg" xmlns:xlink="http://www.w3.org/1999/xlink" viewBox="0 0 1765.52 1309.51" xmlns:v="https://vecta.io/nano"><style><![CDATA[.D{isolation:isolate}.M,.s{mix-blend-mode:overlay}.l,.t,.AE{mix-blend-mode:multiply}.AG{fill:#d1d3d4}.AH{fill:#464848}.AI{fill:#5c5e5e}.AJ{fill:#e6e7e8}.AK{opacity:.3}.AL{fill:#414042}.AM{fill:#f1f2f2}.AN{fill:#84d5f7}.AO{fill:#bcbec0}.AP{opacity:.2}.AQ{fill:#58595b}.AR{fill:#2d3655}.AS{fill:#f2f2f2}.AT{fill:#595a5c}.AU{fill:#374f5a}.AV{fill:#73b8d6}.AW{fill:#7095a7}.AX{fill:#4f6b79}.AY{fill:#81c375}]]></style><defs><linearGradient id="A" x1="1034.61" y1="713.01" x2="864.62" y2="263.53" xlink:href="#b"><stop offset="0" stop-color="#73b8d6"/><stop offset=".28" stop-color="#77b7d5"/><stop offset=".58" stop-color="#85b5d0"/><stop offset=".9" stop-color="#9ab1c9"/><stop offset="1" stop-color="#a3afc6"/></linearGradient><linearGradient id="B" x1="176" y1="888.04" x2="1349.56" y2="850.45" xlink:href="#b"><stop offset="0" stop-color="#b0b867"/><stop offset=".26" stop-color="#acb667"/><stop offset=".53" stop-color="#9fb169"/><stop offset=".81" stop-color="#8aa96b"/><stop offset="1" stop-color="#77a16d"/></linearGradient><linearGradient id="C" x1="423.95" y1="733.24" x2="197.3" y2="437.95" xlink:href="#b"><stop offset="0" stop-color="#f1f2f2"/><stop offset=".44" stop-color="#f0eff0"/><stop offset=".78" stop-color="#ece5e9"/><stop offset="1" stop-color="#e8dae1"/></linearGradient><linearGradient id="D" x1="689.1" y1="563.57" x2="519.11" y2="213.79" xlink:href="#b"><stop offset="0" stop-color="#a7a9ac"/><stop offset=".44" stop-color="#a7a6a9"/><stop offset=".8" stop-color="#a79ca1"/><stop offset="1" stop-color="#a79299"/></linearGradient><linearGradient id="E" x1="672.96" y1="1067.8" x2="1202.53" y2="686.97" xlink:href="#b"><stop offset="0" stop-color="#f9b378"/><stop offset=".3" stop-color="#f6b176"/><stop offset=".54" stop-color="#ecac71"/><stop offset=".76" stop-color="#dba468"/><stop offset=".97" stop-color="#c3975b"/><stop offset="1" stop-color="#be9559"/></linearGradient><linearGradient id="F" x1="1295.94" y1="636.9" x2="947.8" y2="-59.39" xlink:href="#D"/><clipPath id="G" transform="translate(-72.08 -100.46)"><path d="M1430.68 995L839.6 653.76v-54.54l591.02 341.92.05 53.86z" class="AN"/></clipPath><linearGradient id="H" x1="307.88" y1="669.92" x2="85.04" y2="879.68" xlink:href="#b"><stop offset="0" stop-color="#808285"/><stop offset=".59" stop-color="#817e83"/><stop offset="1" stop-color="#827680"/></linearGradient><linearGradient id="I" x1="1226.77" y1="804.9" x2="639.45" y2="152.2" xlink:href="#C"/><linearGradient id="J" x1="736.03" y1="1120.96" x2="1051.03" y2="1120.96" xlink:href="#b"><stop offset="0" stop-color="#ffd372"/><stop offset=".42" stop-color="#fdd071"/><stop offset=".71" stop-color="#f9c770"/><stop offset=".95" stop-color="#f0b86d"/><stop offset="1" stop-color="#eeb46c"/></linearGradient><clipPath id="K" transform="translate(-72.08 -100.46)"><path d="M1466.57 906V742.32L1732.5 590.5v163.93L1466.57 906z" class="AV"/></clipPath><linearGradient id="L" x1="761.92" y1="718.69" x2="962.42" y2="584.12" xlink:href="#E"/><clipPath id="M" transform="translate(-72.08 -100.46)"><path d="M1300.26 850.63v-163.7L674.5 325.43v163.93l625.75 361.27z" fill="url(#A)"/></clipPath><linearGradient id="N" x1="1215.83" y1="1139.04" x2="1079.13" y2="1030.88" xlink:href="#b"><stop offset="0" stop-color="#7ca25c"/><stop offset="1" stop-color="#acb060"/></linearGradient><linearGradient id="O" x1="597.79" y1="978.73" x2="461.09" y2="870.57" xlink:href="#N"/><path id="P" d="M823.43 582.93l6.92 3.9v2.73l-9.24-5.34 2.32-1.3z"/><path id="Q" d="M1625.08 664.64l5.02-2.86v-55.02l-5.02 2.9v54.98z"/><path id="R" d="M1625.08 664.64l-3.04-1.75v-51.47l3.04-1.76v54.98z"/><path id="S" d="M1471.76 498.43v-9.3l59.48-34.3v9.3l-59.48 34.3z"/><path id="T" d="M1471.76 489.13v9.3l-155.4-89.7v-9.3l155.4 89.7z"/><path id="U" d="M1391.4 334.48l-1.47-.88-54.8 59.62 1.48.87 54.78-59.6z"/><path id="V" d="M1409.92 344.82l-1.47-.9-54.8 59.62 1.5.87 54.77-59.6z"/><path id="W" d="M1428.44 355.15l-1.47-.9-54.8 59.63 1.48.87 54.78-59.6z"/><path id="X" d="M1499.9 396.48l-1.47-.88-54.8 59.62 1.5.87 54.77-59.6z"/><path id="Y" d="M1226.6 329.48l54.74-58.05-158.53-90.92-53.45 58.2 157.24 90.78z"/><path id="Z" d="M1231.6 242.44l-1.47-.9-54.8 59.62 1.48.87 54.78-59.6z"/><path id="a" d="M517.05 313.6c0 2.38-3 4.3-6.62 4.3s-6.62-1.93-6.62-4.3 3-4.3 6.62-4.3 6.62 1.93 6.62 4.3z"/><linearGradient id="b" gradientUnits="userSpaceOnUse"/></defs><g class="D"><g><path d="M227.47 880.44l701.65 405.1 761.45-439.66-700.84-405.53-762.26 440.1z" fill="url(#B)"/><path d="M435.6 571.6l401.8-231.98V513L435.6 745.03V571.6z" class="AG"/><path d="M435.6 760.28V571.55l-227.46-131.3v188.7L435.6 760.28z" fill="url(#C)"/><path d="M435.6 571.6L208.14 440.24l529.8-305.87L965.36 265.7 435.6 571.6z" fill="url(#D)"/><path d="M1682.07 835.58l-696-408.46-550.47 317.9 259 149.53 221.3-127.82 442.7 255.6 323.47-186.75z" fill="url(#E)"/><path d="M583.9 191.7l774.65 447.27 332.02-191.7L915.92 0 583.9 191.7z" fill="url(#F)"/><path d="M1690.57 658.6v172.03l-17.22 10v-172.1l17.22-9.94z" class="AO"/><path d="M1562.6 776.74v-52l-204.04 115.95.05 53.86 204-117.8z" class="AV"/><path d="M1358.6 894.54L767.53 553.3v-54.55l591.02 341.92.05 53.86z" class="AN"/><g clip-path="url(#G)" fill="#fff"><path class="M AK" d="M640.75 561.22H610l241.63-244.1h30.74l-241.62 244.1zm486.65 349.16h-30.74l241.62-244.1h30.74l-241.62 244.1zm-155-114.46h-30.74l241.62-244.1h30.75L972.4 795.92zm130.43 95.18l-19.17 3.24 241.62-244.1 19.17-3.24-241.62 244.1zm-376.5-252.85l-54.13-14.83 241.62-244.1 54.13 14.83-241.62 244.1zm76.84 75.95l-54.13-14.82 241.62-244.1 54.13 14.82-241.62 244.1zM1274 983.34l-54.13-14.83 241.62-244.1 54.13 14.83L1274 983.34zM936.64 784.8l-54.13-14.82 241.62-244.1 54.14 14.83-241.63 244.1z"/></g><path d="M1358.6 1037.6v-15.26l331.97-191.7v15.26l-331.97 191.7z" fill="#a38253"/><path d="M1358.6 1037.6v-15.26l-442.7-255.6V782l442.7 255.6z" fill="#c09962"/><path d="M694.6 909.8v-15.25l221.3-127.82V782L694.6 909.8z" fill="#a38253"/><path d="M435.6 745.02v15.26l259 149.52v-15.25l-259-149.53z" fill="#c09962"/><g class="AM"><path d="M1562.6 776.77l110.76 63.9V668.53l-110.76 63.95v44.3zm103.8-324.1L915.92 19.34V40.1l727.1 419.82 23.38-7.26z"/></g><path d="M877.74 41.38L616.8 192.04l15.4 11.87L915.92 40.1V19.34l-38.18 22.04z" class="AJ"/><path d="M1690.57 869.85v-23.97l-761.45 439.66v23.97l761.45-439.66z" fill="#838c4d"/><path d="M929.12 1285.54v23.97l-701.65-405.1v-23.98l701.65 405.1z" fill="#979f58"/><path d="M435.6 760.28L208.16 628.96 0 749.14l227.47 131.3L435.6 760.28z" fill="url(#H)"/><path d="M227.47 904.42v-23.98L0 749.14v23.94l227.47 131.34z" fill="#6d6e71"/><path d="M1358.55 638.96v211.3l332.02-191.68V447.27l-332.02 191.7z" class="AJ"/><path d="M583.9 191.7v211.17l774.65 447.4v-211.3L583.9 191.7z" fill="url(#I)"/><path d="M915.92 0l-332 191.7 774.65 447.26 332-191.68zM619.86 191.7L915.92 20.76l738.7 426.5-296.06 170.92z" class="AG"/><path d="M847.8 963.4a301.08 301.08 0 0 1 61.32 14c11.34 3.93 29.75 19.08 22.27 32.8-7.18 13.15-29.06 10.82-41.6 11.47-16.45.85-35 2.5-45 17.5-26.75 40 38.1 80.95 38.45 120.3.1 9.83-8.32 16-17.57 17.82-39.7 7.7-105.7-30.3-125.97 24.48-1.6 4.3-6.36 29.6-1.7 32.3l171.44 99c-5.4-3.12-3.8-28.93-3.56-33.4.83-15.74 13.78-36.5 25.78-46 26.77-21.32 96.37-26.73 79.7-76.62-10.83-32.42-51-48.15-56.8-82.66-5.1-30.56 29.48-40.32 51-49.85 33-14.66 54.83-43.7 41.5-80.82-10.4-29-38.27-44.56-67.5-50.4-12.2-2.43-24.92-4.6-37.4-4.33z" transform="translate(-72.08 -100.46)" fill="url(#J)"/><path d="M1465.53 838.38V788.5l17.63-10.18v49.95l-17.63 10.1z" class="AG"/><path d="M1394.5 805.54V641.86l265.93-151.83v163.94L1394.5 805.54z" class="AV"/><g clip-path="url(#K)" fill="#fff"><path class="M AK" d="M1541.5 803.1h-32.72l224.02-352.76h32.72L1541.5 803.1zm-223.3 8.02h-32.72l224.02-352.75h32.72L1318.2 811.12zm116.13 23.3h-32.72l224.02-352.75h32.72l-224.02 352.75zm-60.7 14.45h-14.24L1583.4 496.1h14.24l-224.02 352.76z"/></g><path d="M1465.53 838.33l-4.8-2.76v-44.3l4.8-2.77v49.82z" class="AO"/><path d="M1251.6 838.38V788.5l-17.63-10.18v49.95l17.63 10.1z" class="AJ"/><path d="M1251.6 838.33l4.8-2.76v-44.3l-4.8-2.77v49.82z" class="AG"/><path d="M1132.45 769.57V719.7l-17.63-10.18v49.94l17.63 10.1z" class="AJ"/><g class="AG"><path d="M1132.45 769.52l4.8-2.76v-44.3l-4.8-2.76v49.82zm-110.68-63.92l4.8-2.75v-44.3l-4.8-2.77v49.82z"/></g><path d="M849.1 602.25V556.2l-2.06-1.24v46.12l2.06 1.17z" class="AU"/><path d="M849.1 602.25l1.54-.87v-44.3l-1.54-.88v46.05z" fill="#002d3c"/><path d="M642.88 618.93V504.46L689.02 478v114.3l-46.14 26.64z" class="AU"/><path d="M650.64 523.32v-7.04l29.1-16.7v6.93l-29.1 16.8z" class="AN"/><path d="M650.64 522.73v.6l29.1-16.8-.46-.27-28.64 16.48z" class="AW"/><path d="M679.28 506.25l.46.27v-6.93l-.46.26v6.4z" class="AX"/><path d="M650.64 533.33v-7.04l29.1-16.7v6.94l-29.1 16.8z" class="AN"/><path d="M650.64 532.74v.6l29.1-16.8-.46-.28-28.64 16.48z" class="AW"/><path d="M679.28 516.26l.46.28v-6.94l-.46.26v6.4z" class="AX"/><path d="M650.64 543.34v-7.04l29.1-16.7v6.94l-29.1 16.8z" class="AN"/><path d="M650.64 542.75v.6l29.1-16.8-.46-.27-28.64 16.47z" class="AW"/><path d="M679.28 526.28l.46.27v-6.94l-.46.26v6.4z" class="AX"/><path d="M694.57 474.8l-5.55 3.18v114.3l5.55 3.17V474.8z" class="AJ"/><path d="M689.02 592.3l5.55 3.17-51.7 29.86v-6.4l46.14-26.64z" fill="#f9b378"/><path d="M762.65 506.1v50.05l259.12 149.5v-49.87L762.65 506.1z" fill="#e6e6e6"/><path d="M841.2 601.43l26.63-15.36v-19.22l-26.63-15.4v49.98z" class="AG"/><path d="M867.83 586.07l76.15 44.06v-19.3l-76.15-44v19.22z" class="AN"/><path d="M943.98 630.13v30.63L838.82 602.8l29-16.73 76.15 44.06z" fill="url(#L)"/><path d="M830.35 589.57v-44.4l-9.24-5.27v44.33l9.24 5.34z" class="AN"/><path d="M821.1 539.9l2.32 1.32v41.7l-2.32 1.3V539.9z" class="AG"/><use xlink:href="#P" class="AO"/><path d="M814.48 580.4V536l-9.24-5.27v44.33l9.24 5.34z" class="AN"/><path d="M805.24 530.73l2.32 1.32v41.7l-2.32 1.3v-44.33z" class="AG"/><use xlink:href="#P" x="-15.87" y="-9.17" class="AO"/><path d="M798.6 571.23v-44.4l-9.24-5.28v44.33l9.24 5.34z" class="AN"/><path d="M789.37 521.56l2.32 1.32v41.72l-2.32 1.3v-44.33z" class="AG"/><use xlink:href="#P" x="-31.73" y="-18.33" class="AO"/><path d="M996.48 685.55v-44.4l-9.24-5.27v44.33l9.24 5.34z" class="AN"/><path d="M987.24 635.88l2.32 1.32v41.7l-2.32 1.3v-44.33z" class="AG"/><use xlink:href="#P" x="166.13" y="95.97" class="AO"/><path d="M980.6 676.38V632l-9.24-5.28v44.33l9.24 5.34z" class="AN"/><path d="M971.37 626.7l2.32 1.32v41.7l-2.32 1.3V626.7z" class="AG"/><use xlink:href="#P" x="150.27" y="86.81" class="AO"/><path d="M964.74 667.22v-44.4l-9.24-5.28v44.33l9.24 5.35z" class="AN"/><path d="M955.5 617.54l2.3 1.32v41.72l-2.3 1.3v-44.33z" class="AG"/><path d="M957.8 660.58l6.93 3.9v2.74l-9.24-5.35 2.3-1.3z" class="AO"/><path d="M1660.42 653.97l-53.24-30.77L1394.5 746v59.55l265.93-151.57z" class="AG"/><path d="M1607.18 623.2l53.24 30.77V490.03l-53.24 30.4V623.2z" class="AO"/><path d="M1228.18 750.17v-163.7l-625.75-361.5V388.9l625.75 361.27z" fill="url(#A)"/><g clip-path="url(#M)" fill="#fff"><path class="M AK" d="M511.35 420.68H480.6l241.63-244.1h30.74l-241.62 244.1zM998 769.84h-30.74l241.62-244.1h30.74L998 769.84zM843 655.38h-30.75l241.63-244.1h30.74L843 655.38zm130.43 95.18l-19.17 3.24 241.62-244.1 19.17-3.24-241.62 244.1zM596.94 497.7l-54.13-14.82 241.62-244.1 54.13 14.83-241.62 244.1zm76.84 75.96l-54.13-14.83 241.62-244.1 54.14 14.82-241.63 244.1zM1144.6 842.8l-54.13-14.82 241.62-244.1 54.13 14.83-241.62 244.1zM807.24 644.25l-54.13-14.83 241.62-244.1 54.14 14.82-241.63 244.1z"/></g><path d="M602.43 224.97l6.17 3.56v156.94l-6.17 3.44V224.97z" class="AJ"/><path d="M602.43 388.9l6.17-3.44 619.58 357.7v7L602.43 388.9z" class="AG"/><g class="AH"><path d="M1025.65 628.88l2.68-1.56V488.17l-2.68-1.55v142.26zm-72.73-42.22l2.68-1.56V445.94l-2.68-1.54v142.26zm-72.72-42.23l2.67-1.56V403.72l-2.67-1.55v142.26zm-72.75-42.23l2.68-1.56V361.5l-2.68-1.55V502.2zm-145.47-84.44l2.68-1.56V277.04l-2.68-1.54v142.26z"/><path d="M608.55 377.44l619.63 358v2.6L606.24 378.74l2.3-1.3z"/></g><path d="M1171.12 713.38v-142.3l-8.95-5.16v142.3l8.95 5.17z" class="AI"/><path d="M1171.12 713.33l2.68-1.56V572.62l-2.68-1.55v142.26z" class="AH"/><g class="AI"><path d="M1025.65 628.93v-142.3l-8.94-5.16v142.3l8.94 5.17zm-72.73-42.23V444.4l-8.95-5.17v142.3l8.95 5.17zm-72.72-42.22v-142.3l-8.95-5.16v142.3l8.95 5.17zm-72.75-42.22v-142.3l-8.95-5.17v142.3l8.95 5.17zM661.98 417.8V275.5l-8.94-5.17v142.3l8.94 5.17z"/><path d="M1228.18 746.45V738L606.24 378.68v8.1l621.94 359.66z"/></g><path d="M1228.18 609.93v-5.66L606.24 244.95v5.84l621.94 359.14z" class="AJ"/><g class="AI"><path d="M1228.18 604.02v-17.54L606.24 227.16v17.7L1228.18 604zm421.2-14.4l-3.26-1.88-251.62 145.03v4.02l254.88-147.17z"/></g><g class="AH"><path d="M1394.5 736.8l254.88-147.17v5.95l-254.88 147.2v-5.98zm244.17-80l5.02-2.86V598.9l-5.02 2.9v54.98z"/></g><path d="M1638.67 656.8l-3.04-1.75v-51.48l3.04-1.75v54.98z" class="AI"/><use xlink:href="#Q" class="AH"/><use xlink:href="#R" class="AI"/><path d="M1611.5 672.5l5.02-2.86V614.6l-5.02 2.9v54.98z" class="AH"/><path d="M1611.5 672.5l-3.05-1.75v-51.48l3.05-1.75v54.98z" class="AI"/><use xlink:href="#Q" x="-27.18" y="15.66" class="AH"/><use xlink:href="#R" x="-27.18" y="15.66" class="AI"/><use xlink:href="#Q" x="-40.76" y="23.52" class="AH"/><use xlink:href="#R" x="-40.76" y="23.52" class="AI"/><path d="M1570.74 696l5.02-2.86v-55.02l-5.02 2.9V696z" class="AH"/><path d="M1570.74 696l-3.05-1.75v-51.48l3.05-1.75V696z" class="AI"/><use xlink:href="#Q" x="-67.93" y="39.2" class="AH"/><path d="M1557.15 703.84l-3.04-1.75V650.6l3.04-1.75v54.98z" class="AI"/><use xlink:href="#Q" x="-81.52" y="47.06" class="AH"/><use xlink:href="#R" x="-81.52" y="47.06" class="AI"/><path d="M1529.98 719.54l5.02-2.86v-55.02l-5.02 2.9v55z" class="AH"/><path d="M1529.98 719.54l-3.05-1.75V666.3l3.05-1.75v54.98z" class="AI"/><path d="M1516.4 727.38l5.02-2.87v-55l-5.02 2.9v55z" class="AH"/><path d="M1516.4 727.38l-3.04-1.76v-51.47l3.04-1.76v55z" class="AI"/><path d="M1502.8 735.24l5.02-2.86v-55.02l-5.02 2.9v55z" class="AH"/><path d="M1502.8 735.24l-3.04-1.75V682l3.04-1.75v54.98z" class="AI"/><path d="M1489.22 743.07l5.02-2.86V685.2l-5.02 2.9v54.98z" class="AH"/><path d="M1489.22 743.07l-3.05-1.75v-51.47l3.05-1.76v54.98z" class="AI"/><use xlink:href="#Q" x="-149.45" y="86.26" class="AH"/><path d="M1475.63 750.9l-3.04-1.75V697.7l3.04-1.76v54.98z" class="AI"/><use xlink:href="#Q" x="-163.04" y="94.11" class="AH"/><path d="M1462.04 758.75L1459 757v-51.48l3.04-1.75v54.98z" class="AI"/><path d="M1448.46 766.6l5.02-2.86V708.7l-5.02 2.9v55z" class="AH"/><path d="M1448.46 766.6l-3.05-1.75v-51.48l3.05-1.75v54.98z" class="AI"/><use xlink:href="#Q" x="-190.21" y="109.81" class="AH"/><path d="M1434.87 774.45l-3.04-1.75v-51.48l3.04-1.75v54.98z" class="AI"/><path d="M1421.28 782.28l5.03-2.86v-55l-5.03 2.9v54.98z" class="AH"/><path d="M1421.28 782.28l-3.04-1.74v-51.48l3.04-1.76v54.98z" class="AI"/><use xlink:href="#Q" x="-217.38" y="125.48" class="AH"/><path d="M1407.7 790.12l-3.05-1.75V736.9l3.05-1.76v54.98z" class="AI"/><path d="M1394.5 797.76l5.02-2.87v-55l-5.02 2.9v55z" class="AH"/><path d="M416.43 749.23V585.5L222.2 473.15v163.9l194.24 112.17z" class="AU"/><g fill="#648596"><path d="M416.43 592.48v-6.98L222.2 473.15v7.16l194.24 112.17zm0 14.44v-6.98L222.2 487.6v7.16l194.24 112.17zm0 14.44v-6.98L222.2 502.03v7.16l194.24 112.17zm0 14.44v-6.98L222.2 516.46v7.16L416.43 635.8zm0 14.43v-6.98L222.2 530.9v7.16l194.24 112.17zm0 14.43v-6.97L222.2 545.34v7.16l194.24 112.16zm0 14.44v-6.97L222.2 559.77v7.16L416.43 679.1zm0 14.44v-6.98L222.2 574.2v7.16l194.24 112.17zm0 14.44V701L222.2 588.65v7.16l194.24 112.17zm0 14.42v-6.97L222.2 603.1v7.16L416.43 722.4zm0 17.26v-9.8L222.2 617.52v9.97l194.24 112.17z"/></g><path d="M222.2 637.06l8.67-4.55V478.17l-8.67-5.02v163.9z" class="AG"/><path d="M230.86 632.5l185.57 106.92v9.8L222.2 637.06l8.67-4.55z" fill="#808285"/><path d="M858.54 100.03l59.04-34.35 52.7 30.43-59.04 34.35-52.7-30.43z" class="AU"/><path d="M917.58 65.68v7.7l45.75 26.75 6.96-4.02-52.7-30.43z" class="AM"/><path d="M917.58 73.38l-52.34 30.5-6.7-3.86 59.04-34.35v7.7z" class="AJ"/><path d="M1316.37 399.42l59.6-34.37 155.26 89.8-59.48 34.3-155.4-89.7z" class="AG"/><use xlink:href="#S" class="AJ"/><use xlink:href="#T" class="AM"/><path class="l AK AL" d="M1319.1 387.93l48.3-27.8 156.18 90.33-48.17 27.72-156.3-90.24z"/><path d="M1476.88 473.94l54.74-58.05-158.53-90.92-53.46 58.2 157.25 90.78z" class="AR"/><g class="AS"><path d="M1534.85 415.4a3.29 3.29 0 0 0-1.61-2.36l-158.53-90.92a3.28 3.28 0 0 0-4 .62l-53.45 58.2a3.27 3.27 0 0 0 .77 5.05l157.24 90.78a3.2 3.2 0 0 0 1.63.44 3.27 3.27 0 0 0 2.38-1l54.75-58a3.28 3.28 0 0 0 .82-2.8zm-3.23.48l-54.75 58-157.24-90.78 53.46-58.2z"/><use xlink:href="#U"/><use xlink:href="#V"/><use xlink:href="#W"/><path d="M1446.55 365.82l-1.48-.88-54.78 59.62 1.48.87 54.78-59.6z"/><use xlink:href="#U" x="73.4" y="41.88"/><use xlink:href="#U" x="90.5" y="52.42"/><use xlink:href="#X"/><use xlink:href="#X" x="16.64" y="9.58"/></g><path class="l AK AL" d="M1510.63 442.92l15.42 8.92 6.53-3.86-17.15-10.1-4.8 5.05z"/><g class="AM"><path d="M1357.026 340.625l.4-.7 160.112 92.777-.4.7zm-3.254 3.995l.4-.7 160.096 92.805-.4.7zm-17.442 18.114l.4-.7 160.242 92.553-.4.7zm-2.783 3.57l.4-.7 160.242 92.553-.4.7z"/></g><path d="M1191.44 471.5l59.62-34.38 155.26 89.8-59.48 34.3-155.4-89.7z" class="AG"/><use xlink:href="#S" x="-124.92" y="72.09" class="AJ"/><use xlink:href="#T" x="-124.92" y="72.09" class="AM"/><path class="l AK AL" d="M1194.2 460.02l48.3-27.8 156.17 90.33-48.16 27.72-156.3-90.24z"/><path d="M1351.95 546.03l54.74-58.05-158.53-90.93-53.45 58.2 157.24 90.8z" class="AR"/><g class="AS"><path d="M1409.92 487.54a3.27 3.27 0 0 0-1.61-2.35l-158.53-90.92a3.19 3.19 0 0 0-1.62-.44 3.26 3.26 0 0 0-2.41 1.06l-53.45 58.2a3.26 3.26 0 0 0 .77 5l157.24 90.8a3.25 3.25 0 0 0 4-.59l54.74-58.06a3.24 3.24 0 0 0 .87-2.68zm-3.24.48l-54.76 58-157.2-90.8 53.45-58.2z"/><use xlink:href="#X" x="-233.42" y="10.09"/><use xlink:href="#U" x="-106.4" y="82.42"/><path d="M1303.52 427.24l-1.48-.9-54.78 59.62 1.48.87 54.78-59.6z"/><use xlink:href="#X" x="-178.28" y="41.42"/><path d="M1339.87 448.45l-1.48-.9-54.78 59.62 1.48.88 54.78-59.6zm17.1 10.53l-1.47-.88-54.78 59.62 1.48.87 54.77-59.6z"/><use xlink:href="#U" x="-16.43" y="134.09"/><use xlink:href="#W" x="-36.82" y="123"/></g><path class="l AK AL" d="M1385.7 515l15.43 8.93 6.52-3.86-17.14-10.1-4.8 5.04z"/><g class="AM"><path d="M1232.105 412.878l.4-.7 160.226 92.58-.4.7zm-3.34 4.01l.4-.7 160.274 92.497-.4.7zm-17.28 17.906l.4-.7 160.16 92.693-.4.7zm-2.763 3.552l.4-.7 160.13 92.75-.4.7z"/></g><path d="M1066.1 254.97l59.6-34.38 155.26 89.8-59.48 34.3-155.4-89.7z" class="AG"/><use xlink:href="#S" x="-250.28" y="-144.46" class="AJ"/><use xlink:href="#T" x="-250.28" y="-144.46" class="AM"/><path class="l AK AL" d="M1068.83 243.47l48.3-27.8L1273.3 306l-48.17 27.72-156.3-90.24z"/><use xlink:href="#Y" class="AR"/><g class="AS"><path d="M1284.57 270.95a3.29 3.29 0 0 0-1.61-2.36l-158.53-90.92a3.28 3.28 0 0 0-1.62-.43 3.24 3.24 0 0 0-2.41 1.06l-53.48 58.24a3.23 3.23 0 0 0-.83 2.7 3.29 3.29 0 0 0 1.6 2.34l157.23 90.73a3.2 3.2 0 0 0 1.63.44 3.23 3.23 0 0 0 2.38-1l54.74-58.05a3.25 3.25 0 0 0 .9-2.75zm-3.23.48l-54.75 58.05-157.24-90.78 53.45-58.16z"/><path d="M1141.13 190.03l-1.48-.9-54.78 59.62 1.48.87 54.78-59.6z"/><use xlink:href="#V" x="-250.28" y="-144.46"/><use xlink:href="#U" x="-213.24" y="-123.78"/><use xlink:href="#V" x="-213.66" y="-123.45"/><use xlink:href="#U" x="-176.9" y="-102.58"/><use xlink:href="#Z"/><use xlink:href="#V" x="-160.32" y="-92.79"/><use xlink:href="#U" x="-125.14" y="-72.88"/></g><path class="l AK AL" d="M1260.35 298.46l15.42 8.92 6.52-3.86-17.14-10.1-4.8 5.05z"/><g class="AM"><path d="M1106.7 196.32l.4-.7 160.258 92.525-.4.7zm-3.352 4.098l.4-.7 160.387 92.3-.4.7zm-16.84 12.312l.4-.713 160.994 92.525-.4.713zm-3.228 9.088l.4-.7 160.2 92.6-.4.7z"/></g><path d="M941.16 327.05l59.62-34.38 155.26 89.8-59.48 34.3-155.4-89.7z" class="AG"/><use xlink:href="#S" x="-375.2" y="-72.37" class="AJ"/><use xlink:href="#T" x="-375.2" y="-72.37" class="AM"/><path class="l AK AL" d="M943.9 315.56l48.3-27.8 156.17 90.33-48.16 27.72-156.3-90.24z"/><use xlink:href="#Y" x="-124.93" y="72.09" class="AR"/><g class="AS"><path d="M1159.65 343.04a3.29 3.29 0 0 0-1.61-2.36L999.5 249.76a3.3 3.3 0 0 0-1.63-.44 3.25 3.25 0 0 0-2.4 1.06l-53.46 58.16a3.28 3.28 0 0 0 .78 5.05l157.24 90.78a3.2 3.2 0 0 0 1.63.44 3.23 3.23 0 0 0 2.38-1l54.74-58a3.28 3.28 0 0 0 .86-2.77zm-3.24.48l-54.74 58-157.24-90.78 53.45-58.2z"/><use xlink:href="#X" x="-483.7" y="-134.38"/><use xlink:href="#Z" x="-196.88" y="30.01"/><path d="M1053.23 282.78l-1.47-.9-54.78 59.63 1.48.86 54.77-59.6z"/><use xlink:href="#X" x="-428.56" y="-103.03"/><path d="M1089.58 304l-1.47-.88-54.78 59.62 1.48.87 54.77-59.6z"/><use xlink:href="#X" x="-393.22" y="-81.96"/><use xlink:href="#U" x="-266.7" y="-10.38"/><use xlink:href="#U" x="-250.06" y="-0.78"/></g><path class="l AK AL" d="M1135.42 370.54l15.43 8.93 6.52-3.86-17.14-10.1-4.8 5.04z"/><g class="AM"><path d="M981.834 268.447l.4-.7 160.242 92.553-.4.7zm-3.3 3.935l.4-.7 160.2 92.6-.4.7zm-17.346 18.013l.4-.7 160.2 92.6-.4.7zm-2.852 3.553l.4-.7 160.258 92.525-.4.7z"/></g><path d="M703.03 189.7l59.6-34.38 155.26 89.8-59.48 34.3-155.4-89.7z" class="AG"/><use xlink:href="#S" x="-613.34" y="-209.73" class="AJ"/><path d="M858.42 279.4v9.3L703.03 199v-9.3l155.4 89.7z" class="AM"/><path class="l AK AL" d="M705.77 178.2l48.3-27.8 156.18 90.32-48.17 27.72-156.3-90.24z"/><path d="M863.54 264.22l54.74-58.06-158.53-90.92-53.45 58.2 157.24 90.8z" class="AR"/><g class="AS"><path d="M921.5 205.68a3.25 3.25 0 0 0-1.61-2.35L761.37 112.4a3.28 3.28 0 0 0-1.62-.43 3.24 3.24 0 0 0-2.41 1.06l-53.42 58.2a3.28 3.28 0 0 0-.83 2.71 3.25 3.25 0 0 0 1.6 2.33l157.23 90.8a3.33 3.33 0 0 0 1.64.44 3.27 3.27 0 0 0 2.37-1l54.75-58.06a3.28 3.28 0 0 0 .83-2.75zm-3.23.48l-54.74 58.06-157.24-90.8 53.45-58.2z"/><use xlink:href="#Z" x="-453.53" y="-117.68"/><use xlink:href="#X" x="-703.32" y="-261.38"/><use xlink:href="#U" x="-576.3" y="-189.06"/><path d="M833.2 156.1l-1.48-.9-54.78 59.62 1.48.88 54.78-59.6z"/><use xlink:href="#Z" x="-380.15" y="-75.8"/><use xlink:href="#U" x="-522.85" y="-157.31"/><use xlink:href="#W" x="-541.89" y="-168.39"/><use xlink:href="#V" x="-506.72" y="-148.48"/></g><path class="l AK AL" d="M897.28 233.2l15.43 8.93 6.53-3.86-17.15-10.1-4.8 5.04z"/><g class="AM"><path d="M743.638 131.046l.4-.7 160.258 92.525-.4.7zm-3.262 3.91l.4-.7 160.177 92.665-.4.7zM722.992 153.1l.4-.7 160.3 92.47-.4.7zm-2.892 3.443l.4-.7 160.3 92.47-.4.7zM473.14 360.54l-42.82-24.68 79.53-45.95 42.87 24.76-79.58 45.87z"/></g><path d="M552.72 314.67v23.03l-79.58 45.7v-22.85l79.58-45.87z" class="AG"/><path d="M430.32 335.86v22.9l42.82 24.62v-22.85l-42.82-24.68z" class="AJ"/><path d="M529 313.6c0 6.68-8.32 12.1-18.58 12.1s-18.58-5.42-18.58-12.1 8.32-12.07 18.58-12.07S529 306.93 529 313.6z" class="AL"/><use xlink:href="#a" class="AJ"/><path d="M510.43 316.76c-2.57 0-4.6-1.38-4.6-3.15s2-3.16 4.6-3.16 4.6 1.4 4.6 3.16-2.02 3.15-4.6 3.15zm0-5.37c-2 0-3.65 1-3.65 2.22s1.67 2.2 3.65 2.2 3.65-1 3.65-2.2-1.67-2.22-3.65-2.22z" class="AL"/><path d="M510.43 302.76c9.93 0 18 5.1 18.5 11.47 0-.2.1-.4.1-.62 0-6.68-8.32-12.1-18.58-12.1s-18.58 5.43-18.58 12.1c0 .2.08.4.1.62.52-6.38 8.55-11.47 18.5-11.47z" class="AQ"/><g class="AJ"><path d="M514.74 310.34s3.18-5.23 9-4.58c0 0 4.34 3.1 5 7.1 0 0-10.5-2.92-12.24-1.05-.06 0-.9-.7-1.76-1.47zm-9.5.6s-5.5-3-5.5-6.36a15.05 15.05 0 0 1 9.62-2.23s-3.22 4.65-2 7.43zm.68 5.82s-2.12 6.12-6 6.85c0 0-5.56-2.2-7.28-6.4 0 0 6.8 1.34 11.53-2.14zm9.6-.4s6.42 3.54 7.1 6.38a22 22 0 0 1-9.46 2.84s2.94-5.5.3-8.14z"/></g><path d="M491.72 335.16c0 6.68-8.32 12.1-18.58 12.1s-18.6-5.42-18.6-12.1 8.32-12.1 18.6-12.1 18.58 5.42 18.58 12.1z" class="AL"/><use xlink:href="#a" x="-37.29" y="21.56" class="AJ"/><path d="M473.14 338.3c-2.58 0-4.6-1.4-4.6-3.15s2-3.15 4.6-3.15 4.6 1.38 4.6 3.15-2.02 3.15-4.6 3.15zm0-5.37c-2 0-3.65 1-3.65 2.22s1.67 2.2 3.65 2.2 3.65-1 3.65-2.2-1.67-2.22-3.65-2.22z" class="AL"/><path d="M473.14 324.3c9.93 0 18 5.1 18.48 11.47 0-.2.1-.4.1-.62 0-6.68-8.32-12.1-18.58-12.1s-18.6 5.42-18.6 12.1c0 .2.1.4.1.62.5-6.38 8.55-11.47 18.5-11.47z" class="AQ"/><g class="AJ"><path d="M477.45 331.9s3.17-5.23 9-4.58c0 0 4.34 3.1 5 7.1 0 0-10.5-2.92-12.25-1.05-.06 0-.9-.7-1.75-1.47zm-9.53.64s-5.5-3-5.5-6.36a15 15 0 0 1 9.61-2.22s-3.2 4.64-2 7.42zm.7 5.76s-2.1 6.12-6 6.85c0 0-5.56-2.2-7.28-6.4 0 0 6.8 1.35 11.53-2.13zm9.6-.4s6.43 3.54 7.1 6.38a21.88 21.88 0 0 1-9.45 2.84s2.94-5.5.3-8.14z"/></g><path d="M560.08 554.42v71.17l-48.57 28.03v-71.2l48.57-28z" class="AM"/><path d="M556.07 556.73v57.08l4 11.78v-71.17l-4 2.3z" fill="#a7a9ac"/><path d="M556.07 613.53l-44.56 25.7v14.4l48.57-28.03-4-12.06z" class="AJ"/><g class="AQ"><path d="M542.6 585.27l-15.25 8.95v-4.94l15.25-9.03v5.02zm0-8.67l-15.25 8.95v-4.93l15.25-9.03v5z"/></g><path d="M542.6 589.37l-5 2.93v-1.6l5-2.97v1.64z" fill="#2b3990"/><g fill="#6d6e71"><path d="M522.38 624.57l1.74-.98v-2.78l-1.74.97v2.8zm0-3.6l1.74-.97v-2.68l-1.74.98v2.67zm0 6.56l1.74-.98v-2.15l-1.74.98v2.15zm-4.75-7.35l1.75-1v-2.13l-1.75 1.03v2.1zm4.75-4.88v2.18l1.74-1v-2.18l-1.74 1zm-2.28 13.54l1.6-.9v-2.15l-1.6.88v2.17zm0-10.06l1.6-.9v-2.15l-1.6.92v2.12zm-2.47 4.86l1.75-.98V620l-1.75 1v2.64zm-5.1-.6l2-1.12v-2.05l-2 1.15v2.02zm7.57 2.82l1.6-.88v-2.8l-1.6.9v2.8zm0-3.6l1.6-.9v-2.65l-1.6.88v2.66zm-2.47 5l1.75-1v-2.8l-1.75.98v2.8zm-2.38 4.3l1.66-.96v-2.14l-1.66.94v2.16zm0-6.57l1.66-.94v-2.67l-1.66.95V625zm2.38 5.22l1.75-1v-2.15l-1.75 1v2.14zm-2.38-1.62l1.66-.94v-2.8l-1.66.94v2.8zm0-7.1l1.66-.94v-2.07l-1.66.95v2.06zm4.85 10.88l1.6-.92v-2.7l-1.6.88v2.75zm-2.47 1.42l1.75-1v-2.75l-1.75 1v2.76zm-5.1-3.68l2-1.12v-2.8l-2 1.12v2.8zm9.85.93l1.74-1v-2.7l-1.74.98v2.7zm-9.85 2.03l2-1.12v-2.14l-2 1.12v2.14zm0 3.65l2-1.15v-2.82l-2 1.13v2.84zm2.72-1.56l1.66-.95v-2.8l-1.66.94v2.8zm-2.72-8.64l2-1.13v-2.67l-2 1.12v2.68z"/></g><g fill="#fff200"><path class="s AK" d="M991.86 1194.02c0 4.3-9.58 7.77-21.4 7.77s-21.4-3.48-21.4-7.77 9.58-7.76 21.4-7.76 21.4 3.48 21.4 7.76zm-285.12-173.48c0 4.3-9.57 7.77-21.4 7.77s-21.43-3.52-21.43-7.77 9.58-7.76 21.4-7.76 21.43 3.43 21.43 7.76zm239.74-28c0 2.94-6.55 5.3-14.63 5.3s-14.64-2.37-14.64-5.3 6.55-5.3 14.64-5.3 14.63 2.38 14.63 5.3z"/><ellipse class="s AK" cx="333.95" cy="879.02" rx="14.64" ry="5.31"/><path class="s AK" d="M541.98 977.78c0 2.93-6.55 5.3-14.64 5.3s-14.63-2.38-14.63-5.3 6.55-5.3 14.63-5.3 14.64 2.37 14.64 5.3zm516.85 125.92c0 2.93-6.55 5.3-14.63 5.3s-14.64-2.38-14.64-5.3 6.55-5.3 14.64-5.3 14.63 2.37 14.63 5.3zm-5.4-193.9c0 2.94-6.55 5.3-14.64 5.3s-14.63-2.37-14.63-5.3 6.55-5.3 14.63-5.3 14.64 2.38 14.64 5.3z"/></g><g class="AQ"><path class="t AP" d="M655.47 444.2l79.74 148.58 630.5 363.13 252.25-147.18 55.38-140.2-314.75 181.74L655.47 444.2zm951.7 157.6l53.24-111.78-53.24 30.4v81.38zm-368.7 444.07l.93-2v-.07l.78-1.94v-.14q.35-.93.63-1.86l.06-.2.47-1.77.06-.3.33-1.67v-.38l.2-1.56v-.48l.06-1.44v-1.9c0-.23 0-.46-.07-.68 0-.4-.08-.8-.15-1.18l-.16-.8-.22-1-.55-1.8-.45-1.1-.27-.65-.9-1.7c-10.6-18.07-47.8-19.62-83.13-3.48a104.65 104.65 0 0 0-4.12 2l-1.07.54c-1.14.58-2.26 1.17-3.36 1.78l-.63.34q-2 1.1-3.85 2.24l-.63.4-3.27 2.08-.52.34q-3.75 2.5-7.08 5.17l-.23.17c-16.46 13.17-25.18 28.68-22.26 41.2l-34 15.54a2.91 2.91 0 0 0-1.56 2.68 9.14 9.14 0 0 0 4.41 7.51 3.72 3.72 0 0 0 3.36.42h0l34-15.54c14.08 13.27 47.38 13.08 79.16-1.44 21.35-9.76 37.1-23.75 43.9-37.27z"/></g><path d="M1083.48 1030.3h-18.56v67.66c0 1.18.9 2.36 2.7 3.27a16.77 16.77 0 0 0 13.15 0c1.8-.9 2.7-2.08 2.7-3.26h0z" fill="#724e50"/><path d="M1064.92 1030.3v67.66a2.31 2.31 0 0 0 .08.43 17 17 0 0 0 11.86-.53c1.8-.9 2.7-2.07 2.7-3.25h0v-64.3z" fill="#895e61"/><path d="M1185.9 1030.84h0a63.71 63.71 0 0 0-6.15-6.62h0l-2.17-1.92-.07-.06-2.2-1.76-.14-.1-2.2-1.58-.23-.15-2.18-1.4-.33-.2-2.13-1.2-.46-.24-2.07-1-.6-.26-2-.84-.77-.28-1.88-.68-1-.27-1.76-.52-1.15-.26-1.6-.36-1.4-.23-1.42-.23-1.77-.17c-.36 0-.73-.08-1.1-.1l-2.9-.1c-31.62 0-57.25 33-57.25 73.72 0 1.6.06 3.2.14 4.8 0 .42 0 .84.07 1.26.08 1.35.2 2.7.34 4 0 .24 0 .5.07.73.18 1.6.4 3.16.66 4.7 0 .25.1.5.14.75.24 1.4.52 2.76.82 4.12 0 .2.1.42.14.63a87 87 0 0 0 2.67 9.22l.1.26c9 25.48 28.95 43.2 52.1 43.2 31.6 0 57.24-33 57.24-73.7.05-20.92-6.7-39.77-17.56-53.18z" transform="translate(-72.08 -100.46)" fill="url(#N)"/><g class="AQ"><path class="t AP" d="M1113.82 932.03l-3-3.4a87.55 87.55 0 0 1 8.52 38.21c0 40.24-25.63 72.86-57.24 72.86-14 0-26.72-6.36-36.65-16.9 10.08 20.78 28.12 34.64 48.72 34.64 31.6 0 57.24-32.62 57.24-72.86.02-20.65-6.74-39.28-17.6-52.54zm-493.4-46.5l.94-2v-.08l.8-1.93v-.14q.35-.93.63-1.86l.06-.2.48-1.78.06-.3.33-1.67v-.38l.2-1.56v-.48l.06-1.44v-.58l-.05-1.32c0-.23 0-.45-.08-.68 0-.4-.08-.8-.14-1.18l-.16-.8-.22-1-.28-.9-.27-.88a16.08 16.08 0 0 0-.45-1.09l-.27-.66-.9-1.7c-10.6-18.07-47.8-19.62-83.13-3.48a104.65 104.65 0 0 0-4.12 2l-1.07.54-3.37 1.8-.63.34q-2 1.1-3.85 2.24l-.62.38a100.96 100.96 0 0 0-3.27 2.1l-.53.34a113.29 113.29 0 0 0-7.08 5.16c-.07.07-.15.12-.22.18-16.47 13.16-25.18 28.68-22.27 41.2l-34 15.54a2.87 2.87 0 0 0-1.56 2.67 9.12 9.12 0 0 0 4.41 7.52 3.72 3.72 0 0 0 3.36.42h0l34-15.54c14.07 13.27 47.38 13.08 79.16-1.45 21.34-9.75 37.1-23.74 43.9-37.27z"/></g><path d="M465.44 869.97h-18.6v67.66c0 1.2.9 2.37 2.7 3.27a16.77 16.77 0 0 0 13.15 0c1.8-.9 2.7-2.08 2.7-3.26h0z" fill="#724e50"/><path d="M446.85 869.97v67.66a3.73 3.73 0 0 0 .08.44 17.07 17.07 0 0 0 11.87-.53c1.8-.9 2.7-2.08 2.7-3.26h0v-64.3z" fill="#895e61"/><path d="M567.86 870.52h0a64.63 64.63 0 0 0-6.15-6.61h0l-2.18-1.93a.18.18 0 0 0-.07-.05l-2.2-1.76-.14-.1-2.2-1.58-.23-.15-2.17-1.4-.34-.2-2.12-1.2-.47-.24-2.06-1-.6-.27-2-.84-.77-.28-1.9-.67-.94-.28-1.76-.5-1.15-.26-1.62-.37-1.38-.22-1.43-.23-1.76-.17-1.1-.1-2.9-.1C496.6 850 471 883 471 923.7c0 1.6 0 3.2.13 4.8 0 .42.05.84.08 1.26.08 1.36.2 2.7.34 4 0 .24 0 .5.07.73.18 1.6.4 3.15.66 4.7 0 .25.1.5.14.74.24 1.4.5 2.77.82 4.13l.13.62a89.58 89.58 0 0 0 2.67 9.23l.1.26c9 25.48 28.95 43.2 52.12 43.2 31.6 0 57.24-33 57.24-73.7-.02-20.87-6.78-39.72-17.63-53.14z" transform="translate(-72.08 -100.46)" fill="url(#O)"/><path class="t AP AQ" d="M495.78 771.72l-3-3.4a87.69 87.69 0 0 1 8.54 38.22c0 40.24-25.63 72.86-57.24 72.86-13.95 0-26.73-6.36-36.65-16.9 10.08 20.77 28.12 34.64 48.72 34.64 31.6 0 57.24-32.62 57.24-72.86 0-20.66-6.76-39.3-17.6-52.55z"/><path d="M777.57 758.2l-121.9 70.43v-8.47l121.9-70.42v8.46z" fill="#cacaca"/><path d="M777.57 749.74v8.46l44.4 25.65v-8.47l-44.4-25.64z" fill="#d1d2d2"/><g class="D"><path d="M641.34 819.78v34.2l51.5 29.78v-34.24l-51.5-29.74z" fill="#d1d2d2"/><path d="M829.16 770.77v34.2l-136.32 78.8v-34.24l136.32-78.75z" fill="#dee2e2"/></g><path d="M641.33 819.78l51.5 29.76 136.32-78.75-51.53-29.74zm51.42 21.76l-37.07-21.4 121.9-70.4 37.07 21.4z" fill="#f0f0f1"/><path d="M777.57 758.2l29.74 17.18-114.56 66.2L663 824.4l114.56-66.2z" fill="#d7c228"/><path d="M770.2 732.1h0a23.91 23.91 0 0 1 2.12-2.35h0l.75-.68.76-.62.76-.56h.08l.75-.5.1-.07.74-.43.16-.08.7-.36a1.36 1.36 0 0 1 .21-.1l.68-.3.26-.1.65-.23.33-.1.6-.18.4-.1.55-.13.48-.08.5-.08c.2 0 .4 0 .6-.06h1.37c10.9 0 19.7 11.73 19.7 26.2v2.15c0 .5-.07 1-.12 1.43v.27a30.48 30.48 0 0 1-.23 1.67v.26a21.28 21.28 0 0 1-.28 1.47 1.74 1.74 0 0 1-.05.22 33.58 33.58 0 0 1-.91 3.28.36.36 0 0 0 0 .09c-3.1 9.06-10 15.36-17.94 15.36-10.88 0-19.7-11.73-19.7-26.2a30.83 30.83 0 0 1 5.95-19.09z" class="AY"/><path class="AE AP AT" d="M770.2 732.1l1-1.22a32.63 32.63 0 0 0-2.93 13.74c0 14.47 8.82 26.2 19.7 26.2 4.8 0 9.2-2.3 12.62-6.08-3.47 7.47-9.68 12.46-16.78 12.46-10.88 0-19.7-11.73-19.7-26.2a30.83 30.83 0 0 1 6.09-18.9z"/><path d="M744.22 747.9h0a21.72 21.72 0 0 1 2.12-2.35h0l.75-.7.75-.62.76-.56.07-.05.75-.5.12-.07.73-.43.16-.08.7-.37.2-.1.68-.3.27-.1.65-.24.32-.1.6-.18.4-.1c.2 0 .37-.1.56-.12a4 4 0 0 1 .48-.08l.5-.1.6-.06h1.38c10.9 0 19.7 11.73 19.7 26.2v2.16c0 .48-.07 1-.12 1.43a2.28 2.28 0 0 0 0 .26l-.23 1.67a2.56 2.56 0 0 0-.05.27c-.08.5-.18 1-.28 1.46v.23a31.7 31.7 0 0 1-.92 3.28v.1c-3.1 9-10 15.35-17.94 15.35-10.88 0-19.7-11.73-19.7-26.2a30.82 30.82 0 0 1 5.97-19.03z" fill="#4fa56a"/><path class="AE AP AT" d="M744.22 747.9l1-1.22a32.6 32.6 0 0 0-2.94 13.74c0 14.47 8.83 26.2 19.7 26.2 4.8 0 9.2-2.3 12.6-6.08-3.47 7.47-9.68 12.45-16.77 12.45-10.88 0-19.7-11.73-19.7-26.2a30.82 30.82 0 0 1 6.09-18.89z"/><path d="M720 761.34h0a23.82 23.82 0 0 1 2.11-2.35h0l.75-.7.76-.62.75-.56h.08l.75-.5.12-.07.73-.43.16-.08.7-.36.2-.1.68-.3.26-.1.65-.23.33-.1.6-.2.4-.1.56-.13.96-.16.6-.06h1.38c10.88 0 19.7 11.73 19.7 26.2v2.16c0 .47-.06.95-.1 1.42v.26c-.06.57-.14 1.13-.23 1.68v.26c-.1.5-.18 1-.3 1.47v.22a31 31 0 0 1-.92 3.28v.1c-3.1 9.06-10 15.36-17.94 15.36-10.88 0-19.7-11.73-19.7-26.2a30.77 30.77 0 0 1 5.92-19.08z" class="AY"/><path class="AE AP AT" d="M720 761.34l1-1.22a32.78 32.78 0 0 0-2.93 13.74c0 14.47 8.82 26.2 19.7 26.2 4.8 0 9.2-2.28 12.62-6.08-3.47 7.47-9.68 12.46-16.77 12.46-10.88 0-19.7-11.73-19.7-26.2a30.77 30.77 0 0 1 6.08-18.9z"/><path d="M698.82 771.75h0a22.74 22.74 0 0 1 2.11-2.35h0l.75-.68.76-.63.76-.56.08-.06.75-.5.1-.07.74-.43.16-.1.7-.36.2-.1.68-.3.26-.1.65-.24.33-.1.6-.18.4-.1.55-.12a4 4 0 0 1 .48-.08l.5-.08c.2 0 .4 0 .6-.06a2.45 2.45 0 0 1 .38 0h1c10.88 0 19.7 11.73 19.7 26.2v2.16c0 .48-.07 1-.1 1.43a2.3 2.3 0 0 0 0 .26 30.48 30.48 0 0 1-.23 1.67 2.56 2.56 0 0 1 0 .27c-.08.5-.17 1-.28 1.46a1.89 1.89 0 0 1-.05.23 34.38 34.38 0 0 1-.91 3.28.36.36 0 0 1 0 .09c-3.1 9-10 15.35-17.93 15.35-10.9 0-19.7-11.73-19.7-26.2a30.76 30.76 0 0 1 5.95-19.03z" fill="#4fa56a"/><path class="AE AP AT" d="M698.82 771.75l1-1.22a32.75 32.75 0 0 0-2.9 13.74c0 14.47 8.82 26.2 19.7 26.2 4.8 0 9.2-2.3 12.62-6.08-3.47 7.47-9.68 12.45-16.77 12.45-10.9 0-19.7-11.73-19.7-26.2a30.76 30.76 0 0 1 6.06-18.89z"/><path d="M676.3 785.94h0a21.82 21.82 0 0 1 2.12-2.35h0l.75-.7.76-.62.76-.56.08-.05.75-.5.1-.07.73-.42.17-.1.7-.36.2-.1.68-.3.26-.1.65-.24.32-.1.6-.18.4-.1.55-.12a4 4 0 0 1 .48-.08l.5-.1c.2 0 .4 0 .6-.06h1.37c10.9 0 19.7 11.73 19.7 26.2v2.16c0 .48-.07.95-.12 1.43v.26a30.48 30.48 0 0 1-.23 1.67 2.56 2.56 0 0 1 0 .27c-.08.5-.17 1-.28 1.46a1.42 1.42 0 0 1-.05.22 31 31 0 0 1-.99 3.1v.1c-3.1 9.06-10 15.36-17.94 15.36-10.88 0-19.7-11.73-19.7-26.2a30.78 30.78 0 0 1 6.03-18.85z" class="AY"/><path class="AE AP AT" d="M676.3 785.94l1-1.23a32.66 32.66 0 0 0-2.93 13.74c0 14.47 8.82 26.2 19.7 26.2a17 17 0 0 0 12.65-6.11C703.26 826 697.05 831 689.95 831c-10.88 0-19.7-11.73-19.7-26.2a30.78 30.78 0 0 1 6.06-18.86z"/></g></g></svg>