<svg xmlns="http://www.w3.org/2000/svg" viewBox="0 0 699.78 615.44" xmlns:v="https://vecta.io/nano"><style><![CDATA[.B{isolation:isolate}.V,.C,.I{mix-blend-mode:color-burn}.L{mix-blend-mode:multiply}.O{mix-blend-mode:screen}.Y{opacity:.35}.Z{opacity:.25}.a{fill:#3079d1}.b{fill:#1e386c}.c{fill:#d8eaeb}.d{fill:#678ec5}.e{fill:#5394c9}.f{fill:#4d6eaa}.g{fill:#86a3d1}.h{fill:#4d73a1}.i{fill:#365070}.j{fill:#5680b4}]]></style><defs><clipPath id="A" transform="translate(-1657.81 -920.7)"><path d="M2070.47 1392.5V1256.7l-67.37-38.66v135.17l67.37 39.27z" fill="none"/></clipPath></defs><g class="B"><g><path class="C Y e" d="M301.9 361.93l102.35 253.5H356.4L0 409.16l189.03-109.1 112.88 61.86z"/><path d="M52.9 390.6l351.37 203.95 295.5-170.08L347.23 220.5 52.9 390.6z" fill="#fcd177"/><path class="C Y e" d="M432.78 550.6h-104.5L52.88 390.6l294.35-170.1 133.1 240.95-47.56 89.14z"/><path d="M699.78 424.47v20.9L404.26 615.44v-20.9l295.52-170.08z" fill="#fee19d"/><path d="M404.26 594.55L52.88 390.6v20.88l351.38 203.95v-20.9z" fill="#eead56"/><g class="B"><path d="M133.47 122.68v253.37l154.02 90.1 57.8-33.62 67.37 39.27v67.13l20.13 11.7-.01-253.27-299.3-174.67z" class="b"/><path d="M339.43 429.13l-51.94 30.3-148.16-86.77V184.45l200.1 116.28v128.4z" class="c"/><g fill="#3f415b"><path class="I Z" d="M302.4 364.3c.24 0 .4.83.4.83a1.17 1.17 0 0 1-.92.64 8.42 8.42 0 0 1-3-1 24 24 0 0 1-.43-4 6 6 0 0 1 .73-1.94.93.93 0 0 1-.28-.6 1 1 0 0 1 .12-.42s6.72-12.85 7.43-14.74c.3-.75 0-3.13-.15-5.9a6.16 6.16 0 0 1-.9-1.15 4.14 4.14 0 0 1-.48-3.38 8.91 8.91 0 0 1 1.4-2.13 7.47 7.47 0 0 1 1.63-4.47l.27-.83c.58-1.38 2.35-2.77 3.47-3.73.15-.13.33-.24.5-.37l.25-5.52-.32-.23c-.5-.37-.14-7.85 0-9.88a3.16 3.16 0 0 1 1.05-3.59c2-2 3.7-1.9 3.7-1.9s6.62-1.16 8.22 3.13c1 2.78 1.62 9.6 1.9 14.1 1 .3 3.1 1.52 3.56 6.9.6 7 0 18.94 0 18.94l-3.82 8.2c3.16 16.65 2.8 27 2.36 27.77a5.07 5.07 0 0 1-2.44 1.78l-.33.13a28.29 28.29 0 0 1-.73 7.18c-1.1 4-.5 12.86-.4 14.25a5.21 5.21 0 0 1 .36 1.2 4.14 4.14 0 0 0 .08.44 11.82 11.82 0 0 1 .21 1.26 1.45 1.45 0 0 1 0 .28v1.6a3.93 3.93 0 0 1-1.93 1.15 9.39 9.39 0 0 1-2.54-.68v-.75a18.46 18.46 0 0 1-1.83-.41 9.9 9.9 0 0 1-2.15-.82 10.93 10.93 0 0 1-3-2.09 1.44 1.44 0 0 1 .95-1.2 31.3 31.3 0 0 0 4-.08h1.4l-1.76-19.4a28 28 0 0 1-5.42 0 34.28 34.28 0 0 1-.61 10.57c-1.2 4.37-1 14.07-1 14.07a17.53 17.53 0 0 0 .32 1.21 3.67 3.67 0 0 0 .09.43c.08.4.15.84.2 1.26v1.05a5.38 5.38 0 0 1 0 .82 3.94 3.94 0 0 1-1.92 1.15 9.37 9.37 0 0 1-2.55-.68V412a16.68 16.68 0 0 1-1.83-.4 9.9 9.9 0 0 1-2.15-.82 11.1 11.1 0 0 1-3-2.1c0-.6.57-1 .7-1.2a16 16 0 0 1 4.31-.07h.78a1.18 1.18 0 0 0 .62-.26l-1.1-21.57-.14-4.38c-.35-.14-.7-.25-1-.4-2.35-1-1.85-2.16-1.73-4.5l.44-6.73a77.78 77.78 0 0 1 2.06-13c.3-1.16.66-2.37 1-3.6l-3.7 5.77a2.26 2.26 0 0 1-.47.37c-.07 0-.18 0-.26.07a7.76 7.76 0 0 1-.12 1.77c-.24 1.32-.76 2.27-.76 2.7a.65.65 0 0 0 .68.6zm-37.9-39.2c-.24 0-.4.83-.4.83a1.16 1.16 0 0 0 .91.64 8.62 8.62 0 0 0 3-1 22.94 22.94 0 0 0 .44-4 6 6 0 0 0-.73-1.94 1 1 0 0 0 .28-.6.8.8 0 0 0-.13-.42l-7.42-14.74c-.3-.75 0-3.13.14-5.9a5.84 5.84 0 0 0 .91-1.14 4.1 4.1 0 0 0 .47-3.38 8.23 8.23 0 0 0-1.39-2.13 7.39 7.39 0 0 0-1.64-4.47l-.26-.83c-.58-1.38-2.36-2.77-3.47-3.73l-.5-.37-.26-5.52.33-.23c.5-.38.14-7.85 0-9.88a3.16 3.16 0 0 0-1.05-3.59c-2-2-3.7-1.9-3.7-1.9s-6.63-1.16-8.23 3.13c-1 2.77-1.6 9.6-1.9 14.1-1 .3-3.12 1.5-3.57 6.9-.58 7 0 18.94 0 18.94l3.82 8.2c-3.16 16.65-2.8 27-2.36 27.76a5 5 0 0 0 2.44 1.79 3.21 3.21 0 0 0 .33.12 28.32 28.32 0 0 0 .73 7.19c1.1 4 .5 12.86.4 14.25a6 6 0 0 0-.35 1.2 4.31 4.31 0 0 1-.09.44c-.08.38-.15.84-.2 1.26v1.04a5.34 5.34 0 0 0 0 .82 4 4 0 0 0 1.92 1.16 9.37 9.37 0 0 0 2.55-.68v-.76a17.1 17.1 0 0 0 1.84-.4 9.63 9.63 0 0 0 2.14-.82 10.88 10.88 0 0 0 3-2.09 1.43 1.43 0 0 0-1-1.2 31.3 31.3 0 0 1-4-.08h-1.4l1.76-19.4a27.17 27.17 0 0 0 5.41.06 34.91 34.91 0 0 0 .61 10.57c1.2 4.37 1 14.06 1 14.06s-.16.52-.32 1.22a3.67 3.67 0 0 1-.09.43 12.26 12.26 0 0 0-.21 1.26 1.49 1.49 0 0 0 0 .28v.77a5.38 5.38 0 0 0 0 .82 3.94 3.94 0 0 0 1.92 1.15 9.58 9.58 0 0 0 2.55-.68v-.75a16.68 16.68 0 0 0 1.83-.4 10.23 10.23 0 0 0 2.15-.82 10.92 10.92 0 0 0 3-2.1c0-.6-.57-1-.7-1.2a15.93 15.93 0 0 0-4.3-.07h-.78a1.22 1.22 0 0 1-.63-.26l1.12-21.57.14-4.4c.35-.13.7-.24 1-.4 2.35-1 1.84-2.16 1.72-4.5l-.43-6.72a79.74 79.74 0 0 0-2.06-13c-.3-1.17-.67-2.37-1-3.6l3.7 5.76a2.06 2.06 0 0 0 .48.38 2 2 0 0 0 .26.06 7.29 7.29 0 0 0 .12 1.78c.24 1.32.75 2.27.75 2.7a.65.65 0 0 1-.61.55z"/></g><path d="M432.78 297.35V550.6L645.2 427.8V174.56l-212.43 122.8z" class="d"/><path d="M133.47 122.68l299.3 174.67 212.43-122.8L344.98 0l-211.5 122.68z" class="f"/><path class="L Z a" d="M281.73 267.44c-.12.23-.12 23.35-.12 23.35l-142.28 81.87v-188.2l51.93 30.1z"/><path d="M624.17 239.35l5.8 2.63v-43.5l-5.8 3.4v37.47z" class="b"/></g><path d="M192.18 109.07L592.1 184.9 610 174.56l-265-154.16-152.8 88.67z" class="b"/><path d="M209.97 119.4L457.2 263.26l135.04-78.38L345 41.05 209.97 119.4z" class="g"/><path d="M192.18 109.07l17.8 10.32 135-78.34V20.4l-152.8 88.67z" class="d"/><g clip-path="url(#A)"><path d="M345.3 432.86v-193.8l124.5 71.9v193.8l-124.5-71.9z" class="c"/><path class="L Z a" d="M462.94 493.92l-110.8-63.96V249.9l110.8 63.96v180.06z"/><g class="c"><path d="M410.98 467.14l-6.87-3.96v-186.9l6.87 3.96v186.9z"/><path d="M417.56 372.48l-20.03-11.57v47.22l20.03 11.57v-47.22z"/></g></g><path d="M139.34 340.65l46.07-26.63v25.03l-46.06 26.78-.01-25.18z" fill="#fcd177"/><g class="e"><path class="C Y" d="M139.34 340.65l46.07-26.63v25.03l-46.06 26.78-.01-25.18z"/><path class="C Y" d="M139.34 326.98l46.07-26.6v13.5l-46.06 26.78-.01-13.7z"/></g><path class="O a" d="M139.35 184.22l46.06 26.45v128.38l-46.06 26.78v-181.6z" opacity=".75"/><g class="B"><path d="M333.75 396.45l-.34 28.38-51.44 29.85.34-28.4 51.44-29.84z" class="h"/><path d="M282.3 426.3l-.34 28.4-136.26-78.76v-28.38l136.6 78.75z" class="i"/><path d="M333.75 396.45L282.3 426.3l-136.6-78.75 50.88-29.12 137.16 78.03z" class="j"/><path d="M317.23 371.7l-.1 15.2-34.26 19.55.1-15.2 34.26-19.55z" class="h"/><path d="M282.97 391.26l-.1 15.2-121.2-68 .1-15.2 121.2 68z" class="i"/><path d="M317.23 371.7l-34.26 19.55-121.2-68 34.26-19.55 121.2 68z" class="j"/><path d="M298.44 345.97l-.1 15.2-18.72 10.67.1-15.2 18.72-10.67z" class="h"/><path d="M279.72 356.64l-.1 15.2L177.1 314.5l.1-15.2 102.52 57.33z" class="i"/><path d="M298.44 345.97l-18.72 10.67L177.2 299.3l18.72-10.67 102.52 57.33z" class="j"/></g><path d="M287.5 264.3v201.88l57.82-33.6V297.3zm51.94 164.87l-46.06 26.76V274.3l46.06 26.4z" fill="#e6f9fa"/><path class="L Z a" d="M301.78 279.14l-8.43 4.87v-9.7l8.43 4.83z"/><path d="M133.45 174.2v201.87l154 90.06V264.3zm148 281.68l-142.1-83.23v-188.2l51.93 30.1 90.35 53.1z" class="c"/><g fill="#4f5173"><path d="M258.04 392.68a12 12 0 0 0-.81-3.43c0-.12-.1-.24-.15-.34s-2-3-4.9-.25a6 6 0 0 0-.89 1l-3.57 4.25c-1.78 1.9-5.48 4.17-4.9 5.18a2.46 2.46 0 0 0 1.63.67 21.29 21.29 0 0 0 3.2.2 7.91 7.91 0 0 0 5.31-2.06 26.63 26.63 0 0 0 2.44-2.43l1.2.44 1.43-1.2zm-11.18-2.73a7.07 7.07 0 0 1 1.7.8 5.61 5.61 0 0 0 1.85-1.12v-2.1a10.4 10.4 0 0 0-1.25-3 3.52 3.52 0 0 0-4.91 0l-4.33 4.33-.82.83c-1.3 1.82-3.24 5.1-2 5.9 1.82 1.2 5.57-1.08 5.9-1.3.93-.8 1.5-2.96 3.86-4.3zm32.6 15.15a12 12 0 0 0-.81-3.43c0-.12-.1-.24-.15-.34s-2-3-4.9-.25a6 6 0 0 0-.89 1l-3.57 4.25c-1.78 1.9-5.48 4.17-4.9 5.18a2.42 2.42 0 0 0 1.63.66 20 20 0 0 0 3.2.21 7.91 7.91 0 0 0 5.31-2.06 26.63 26.63 0 0 0 2.44-2.43l1.2.44 1.43-1.2zm-11.18-2.73a7.07 7.07 0 0 1 1.7.8 5.61 5.61 0 0 0 1.85-1.12l-.05-2.1a10.26 10.26 0 0 0-1.25-3 3.52 3.52 0 0 0-4.91 0l-4.33 4.33-.82.83c-1.3 1.82-3.24 5.1-2 5.9 1.82 1.18 5.57-1.08 5.9-1.3.98-.8 1.54-3 3.9-4.3zm31.77-3.42l1.42 1.2 1.2-.44a26.63 26.63 0 0 0 2.44 2.43 7.91 7.91 0 0 0 5.31 2.06 21.29 21.29 0 0 0 3.2-.2 2.46 2.46 0 0 0 1.63-.67c.6-1-3.1-3.28-4.9-5.14l-3.57-4.3a5.63 5.63 0 0 0-.89-1c-2.9-2.72-4.9.25-4.9.25l-.15.34a12 12 0 0 0-.81 3.43zm15.15-.46c.32.23 4.07 2.5 5.9 1.3 1.2-.78-.75-4.07-2-5.9l-5.16-5.16a3.52 3.52 0 0 0-4.91 0 10.18 10.18 0 0 0-1.24 3l-.06 2.1a5.61 5.61 0 0 0 1.85 1.12 7.31 7.31 0 0 1 1.7-.8c2.34 1.28 2.92 3.48 3.92 4.3zm-142.13-52.7a12 12 0 0 0-.81-3.44l-.15-.34s-2-3-4.9-.24a5.38 5.38 0 0 0-.89 1l-3.57 4.25c-1.78 1.9-5.48 4.16-4.9 5.17.2.33.8.55 1.63.67a21.23 21.23 0 0 0 3.2.21 8 8 0 0 0 5.31-2.07 26.63 26.63 0 0 0 2.44-2.43l1.2.45 1.43-1.2zm-11.18-2.74a7.07 7.07 0 0 1 1.7.8 5.61 5.61 0 0 0 1.85-1.12v-2.1a10.37 10.37 0 0 0-1.25-3 3.52 3.52 0 0 0-4.91 0l-4.33 4.33-.82.83c-1.3 1.82-3.24 5.1-2 5.9 1.82 1.18 5.57-1.1 5.9-1.3.93-.8 1.5-3 3.86-4.33zm31.3 14.5a12.16 12.16 0 0 0-.82-3.44 2.52 2.52 0 0 0-.14-.33s-2-3-4.9-.25a5.63 5.63 0 0 0-.89 1l-3.57 4.25c-1.78 1.9-5.48 4.17-4.9 5.17.2.33.8.55 1.63.67a19.92 19.92 0 0 0 3.2.21 7.91 7.91 0 0 0 5.31-2.06 28 28 0 0 0 2.44-2.44l1.2.45 1.42-1.2zm-11.2-2.73a7.31 7.31 0 0 1 1.7.8 5.7 5.7 0 0 0 1.85-1.13v-2.1a10.26 10.26 0 0 0-1.25-3 3.52 3.52 0 0 0-4.91 0 1589.09 1589.09 0 0 0-4.33 4.33l-.83.84c-1.3 1.82-3.24 5.1-2 5.9 1.82 1.18 5.57-1.1 5.9-1.3.9-.8 1.46-3 3.83-4.32zm32 13.24a12 12 0 0 0-.82-3.44 2.52 2.52 0 0 0-.14-.33s-2-3-4.9-.25a5.63 5.63 0 0 0-.89 1l-3.57 4.25c-1.78 1.9-5.48 4.16-4.9 5.17.2.33.8.55 1.63.67a19.92 19.92 0 0 0 3.2.21 8 8 0 0 0 5.31-2.06 29.41 29.41 0 0 0 2.44-2.44l1.2.45 1.42-1.2zm-11.18-2.73a7.52 7.52 0 0 1 1.7.79 5.73 5.73 0 0 0 1.85-1.12v-2.1a10.13 10.13 0 0 0-1.25-3 3.52 3.52 0 0 0-4.91 0l-5.16 5.16c-1.3 1.82-3.24 5.1-2 5.9 1.82 1.18 5.57-1.1 5.9-1.3.95-.8 1.5-3 3.88-4.36zm32.6 14.4a12 12 0 0 0-.82-3.43 2.67 2.67 0 0 0-.14-.34s-2-3-4.9-.25a5.63 5.63 0 0 0-.89 1l-3.57 4.25c-1.78 1.9-5.48 4.17-4.9 5.18a2.41 2.41 0 0 0 1.63.67 20 20 0 0 0 3.2.2 7.91 7.91 0 0 0 5.31-2.06 26.63 26.63 0 0 0 2.44-2.43l1.2.44 1.42-1.2zM224.24 377a7.31 7.31 0 0 1 1.7.8 5.73 5.73 0 0 0 1.85-1.12v-2.1a10.37 10.37 0 0 0-1.25-3 3.52 3.52 0 0 0-4.91 0 794.06 794.06 0 0 0-4.33 4.33l-.83.83c-1.3 1.82-3.24 5.1-2 5.9 1.82 1.2 5.57-1.08 5.9-1.3.95-.8 1.5-3.03 3.88-4.32zm50.66-6.94a12 12 0 0 0-.81-3.44l-.14-.34c-.04-.1-2-3-4.9-.24a5 5 0 0 0-.89 1l-3.57 4.25c-1.78 1.9-5.48 4.16-4.9 5.17.18.33.8.55 1.63.67a21.09 21.09 0 0 0 3.19.21 8 8 0 0 0 5.32-2.07 29.45 29.45 0 0 0 2.44-2.43l1.2.45 1.42-1.2zm-11.17-2.74a7.31 7.31 0 0 1 1.7.8 5.65 5.65 0 0 0 1.84-1.12v-2.1a10.37 10.37 0 0 0-1.25-3 3.53 3.53 0 0 0-4.92 0l-5.15 5.16c-1.3 1.82-3.24 5.1-2 5.9 1.8 1.18 5.56-1.1 5.9-1.3.96-.8 1.5-3 3.9-4.35zm42.1 1.76a8.26 8.26 0 0 0-.82-.83l-4.3-4.35a3.62 3.62 0 0 0-5 0 11.42 11.42 0 0 0-1.23 3l-.06 2.12a6.42 6.42 0 0 0 1.88 1.12 7.33 7.33 0 0 1 1.71-.83c2.35 1.35 2.88 3.53 3.94 4.35.3.24 4.06 2.47 5.88 1.3 1.23-.77-.66-4.06-2-5.88zm-8.64 4.3c0-.06-3.6-4.3-3.6-4.3a1.05 1.05 0 0 0-.24-.3v9.6a7.92 7.92 0 0 0 3.88 1 26 26 0 0 0 3.18-.18c.82-.17 1.47-.35 1.65-.7.6-1-3.12-3.3-4.9-5.12zm-107.26-50.2a12 12 0 0 0-.81-3.44c0-.12-.1-.23-.14-.33s-2-3-4.9-.25a5.63 5.63 0 0 0-.89 1l-3.57 4.25c-1.78 1.9-5.48 4.16-4.9 5.17.18.33.8.55 1.63.67a19.92 19.92 0 0 0 3.2.21 8 8 0 0 0 5.31-2.06 31.05 31.05 0 0 0 2.44-2.44l1.2.45 1.42-1.2zm-11.17-2.73a7.31 7.31 0 0 1 1.7.8 5.8 5.8 0 0 0 1.84-1.13v-2.1a10.13 10.13 0 0 0-1.25-3 3.53 3.53 0 0 0-4.92 0l-5.15 5.16c-1.3 1.82-3.24 5.1-2 5.9 1.8 1.18 5.56-1.1 5.9-1.3.96-.8 1.5-3 3.9-4.32zM210 334.93a12 12 0 0 0-.81-3.43l-.14-.34s-2-3-4.9-.25a6 6 0 0 0-.89 1l-3.57 4.25c-1.78 1.9-5.48 4.17-4.9 5.18a2.41 2.41 0 0 0 1.63.67 20.13 20.13 0 0 0 3.2.2 7.89 7.89 0 0 0 5.31-2.06 28.22 28.22 0 0 0 2.45-2.43l1.2.44 1.43-1.2zm-11.18-2.73a7.26 7.26 0 0 1 1.71.8 5.65 5.65 0 0 0 1.84-1.12v-2.1a10.08 10.08 0 0 0-1.25-3 3.52 3.52 0 0 0-4.91 0l-4.33 4.33-.82.83c-1.3 1.82-3.24 5.1-2 5.9 1.8 1.2 5.56-1.08 5.9-1.3.94-.8 1.5-3 3.87-4.32zm32.05 13.24a12 12 0 0 0-.81-3.43l-.14-.34s-2-3-4.9-.25a6 6 0 0 0-.89 1l-3.57 4.25c-1.78 1.9-5.48 4.17-4.9 5.18a2.42 2.42 0 0 0 1.63.66 20.08 20.08 0 0 0 3.2.21 7.89 7.89 0 0 0 5.31-2.06 29.71 29.71 0 0 0 2.45-2.43l1.2.44 1.43-1.2zm-11.18-2.73a7.26 7.26 0 0 1 1.71.8 5.62 5.62 0 0 0 1.84-1.13v-2.1a10.26 10.26 0 0 0-1.25-3 3.52 3.52 0 0 0-4.91 0l-4.33 4.33-.82.84c-1.3 1.82-3.24 5.1-2 5.9 1.8 1.18 5.56-1.08 5.9-1.3.94-.8 1.5-3 3.87-4.32zm32.6 14.4a12 12 0 0 0-.81-3.44c0-.12-.1-.23-.14-.34s-2-3-4.9-.24a5.38 5.38 0 0 0-.89 1l-3.57 4.25c-1.78 1.9-5.48 4.16-4.9 5.17.2.33.8.55 1.63.67a21.32 21.32 0 0 0 3.2.21 7.94 7.94 0 0 0 5.31-2.06 29.69 29.69 0 0 0 2.45-2.44l1.2.45 1.43-1.2zm-11.18-2.74a7.26 7.26 0 0 1 1.71.8 5.65 5.65 0 0 0 1.84-1.12v-2.1a9.85 9.85 0 0 0-1.25-3 3.51 3.51 0 0 0-4.91 0l-4.33 4.33-.82.83c-1.3 1.82-3.24 5.1-2 5.9 1.8 1.18 5.56-1.1 5.9-1.3.95-.8 1.5-3 3.87-4.33z"/></g><g fill="#fee19d"><path d="M261.7 344.8l-4.08-2.5v-6.03l4.08 2.5v6.02zm-19.93-10.77l-4.08-2.5v-6.02l4.08 2.5v6.03zm-18.83-11.76l-4.1-2.5v-6.03l4.1 2.5v6.02zm-18.77-10.23l-4.08-2.5v-6.03l4.08 2.5v6.03zm-33.6 44.6l-4.08-2.5v-6.03l4.08 2.5v6.02zm18.92 12.72l-4.1-2.5v-6.02l4.1 2.5v6.03zm18.9 11.7l-4.1-2.5v-6.02l4.1 2.5v6.03zm20 10.9l-4.08-2.5v-6.03l4.08 2.5v6.02zm24.05 13.4l-4.08-2.5v-6.02l4.08 2.5v6.03zm21.43-25.14l-4.1-2.5v-6.03l4.1 2.5v6.02zM250.4 368.7l-4.1-2.5v-6.02l4.1 2.5v6.03zm-22.6-12.5l-4.08-2.5v-6.02l4.08 2.5v6.03zm-21-11.27l-4.08-2.5v-6.02l4.08 2.5v6.03zm-19.24-10.9l-4.1-2.5v-6.02l4.1 2.5v6.03z"/></g><g fill="#4f5173"><path d="M209.08 298.2a25.76 25.76 0 0 1-.27-4.7c.15-3.15 1.68-16.55 1-19.06 0 0-5.28-1.2-7.72.56a22.88 22.88 0 0 0-.09-5.07s-6.07-1.43-8.22.93c0 0 2.68 18 .7 22.78l-3 3-.82.84c-1.3 1.82-3.24 5.1-2 5.9 1.82 1.18 5.57-1.08 5.9-1.3 1-.83 1.58-3 4-4.35a7.07 7.07 0 0 1 1.7.8 5.58 5.58 0 0 0 1.85-1.13v-2.1a6.07 6.07 0 0 0-.57-1.66 14.55 14.55 0 0 1-.35-4.66c.08-1.76.58-6.7.9-11.16.65 5.06 1.9 16.62.36 20.33 0 .06-3 3.58-3 3.58-1.78 1.9-5.48 4.17-4.9 5.17.2.33.8.55 1.63.67a20 20 0 0 0 3.2.21 7.89 7.89 0 0 0 5.31-2.06 26.62 26.62 0 0 0 2.44-2.44l1.2.45 1.43-1.2v-2.07a12.78 12.78 0 0 0-.69-2.24zm18.6 9.66a26.55 26.55 0 0 1-.26-4.7c.14-3.16 1.68-16.55 1-19.06 0 0-5.27-1.2-7.7.56a22.09 22.09 0 0 0-.1-5.07s-6.06-1.43-8.2.93c0 0 2.67 18 .7 22.78l-3.83 3.83c-1.3 1.82-3.24 5.1-2 5.9 1.82 1.18 5.57-1.1 5.9-1.3 1-.83 1.6-3 4-4.35a7.31 7.31 0 0 1 1.7.8 5.89 5.89 0 0 0 1.85-1.13l-.05-2.1a6.07 6.07 0 0 0-.57-1.66 14.74 14.74 0 0 1-.36-4.66c.08-1.76.6-6.7.9-11.17.64 5.07 1.9 16.63.36 20.34 0 .06-3 3.58-3 3.58-1.78 1.9-5.48 4.16-4.9 5.17.2.33.8.55 1.63.67a19.92 19.92 0 0 0 3.2.21 8 8 0 0 0 5.31-2.06 31.05 31.05 0 0 0 2.44-2.44l1.2.45 1.42-1.2v-2.07a12 12 0 0 0-.63-2.24zm18.95 10.9a26.62 26.62 0 0 1-.26-4.71c.14-3.15 1.68-16.54 1-19 0 0-5.27-1.22-7.72.56a22.24 22.24 0 0 0-.09-5.07s-6.07-1.44-8.2.93c0 0 2.67 18 .7 22.77l-3.83 3.83c-1.3 1.82-3.24 5.1-2 5.9 1.8 1.18 5.56-1.1 5.9-1.3 1-.83 1.58-3 4-4.36a7.31 7.31 0 0 1 1.7.8 5.65 5.65 0 0 0 1.84-1.12v-2.1a6.3 6.3 0 0 0-.57-1.66 14.37 14.37 0 0 1-.36-4.66c.08-1.76.6-6.7.9-11.17.65 5.07 1.9 16.63.37 20.34 0 .06-3 3.58-3 3.58-1.78 1.9-5.48 4.16-4.9 5.17.18.33.8.55 1.63.67a21.14 21.14 0 0 0 3.2.21 8 8 0 0 0 5.31-2.06 31.05 31.05 0 0 0 2.44-2.44l1.2.45 1.42-1.2v-2.07a12 12 0 0 0-.67-2.28zM265.7 328a26.55 26.55 0 0 1-.26-4.7c.15-3.16 1.68-16.55 1-19.06 0 0-5.27-1.2-7.7.56a22.88 22.88 0 0 0-.09-5.07s-6.07-1.43-8.22.93c0 0 2.67 18 .7 22.78l-3 3c-.46.45-.8.78-.83.84-1.3 1.82-3.24 5.1-2 5.9 1.82 1.18 5.57-1.1 5.9-1.3 1-.83 1.6-3 4-4.35a7.31 7.31 0 0 1 1.7.8 5.7 5.7 0 0 0 1.85-1.13v-2.1a6.07 6.07 0 0 0-.57-1.66 14.68 14.68 0 0 1-.36-4.66c.08-1.76.6-6.7.9-11.16.64 5.06 1.9 16.62.36 20.33 0 .06-3 3.58-3 3.58-1.78 1.9-5.48 4.16-4.9 5.17.2.33.8.55 1.63.67a19.92 19.92 0 0 0 3.2.21 7.91 7.91 0 0 0 5.31-2.06 28 28 0 0 0 2.44-2.44l1.2.45 1.42-1.2v-2.02a12 12 0 0 0-.68-2.29zm15.9-14.2c-.06.23-.06 30.94-.06 30.94-.24.23-.53.47-.76.7a7.85 7.85 0 0 1-5.3 2.06 17 17 0 0 1-3.17-.24c-.83-.1-1.47-.3-1.65-.64-.6-1 3.12-3.3 4.88-5.12 0-.06 2.94-3.6 2.94-3.6 1.6-3.76.35-15.3-.3-20.4l-.94 11.18v1a15 15 0 0 0 .35 3.7 4.76 4.76 0 0 1 .59 1.65l.06 2.12a6.37 6.37 0 0 1-1.89 1.12 7.14 7.14 0 0 0-1.7-.83c-2.35 1.36-2.88 3.53-3.94 4.35-.3.24-4.06 2.47-5.88 1.3-1.24-.77.76-4.06 2-5.88a9.12 9.12 0 0 1 .83-.83 77.09 77.09 0 0 1 3-3c2-4.82-.7-22.82-.7-22.82 2.18-2.35 8.24-.94 8.24-.94a23.27 23.27 0 0 1 .06 5.12 6 6 0 0 1 3.34-.94z"/></g><path class="L Z a" d="M339.43 300.82v128.4L293.37 456V274.42l46.06 26.4z"/><path d="M629.98 241.98l-110.1 64.07v-6.02l104.3-60.7 5.8 2.65z" class="f"/><path d="M624.17 201.88v37.47l-104.3 60.67.01-37.38 104.28-60.76z" fill="#fff"/><path class="L Z a" d="M620.93 203.76v33.94l-101.05 58.85v-34l101.05-58.8z"/><path class="V Y" d="M624.17 201.88v37.47l5.82 2.63h-10.35v-26.74l-99.75 57.8v-10.47l104.28-60.7z" fill="#618096"/><path d="M450.17 364.4v68.78L626.96 331V262.2l-176.8 102.2z" class="g"/><path class="L Z a" d="M281.6 267.68l-.18 188.2-142.1-83.22V184.45l142.28 83.23z"/><g class="c"><path d="M168.67 252.98c0 5.37-3.35 4.72-6.2 3.08l-3.16-1.83v-13.17l2.76 1.6c3.37 1.94 6.6 4.86 6.6 10.33zm-7.54-9.42v10.3l1.47.85c2.07 1.2 4.14 1.5 4.14-2.84s-2.16-6.3-4.27-7.53zm12.33 18.84l-1.82-1v-13.18l1.82 1.05zm11.14-5.44l-1 .54a9.67 9.67 0 0 0-3-2.89c-1.32-.76-2.37-.75-2.37.5s.52 1.94 2.9 4c2.1 1.86 3.9 3.73 3.9 6.25 0 2.3-1.74 2.9-4.7 1.2a13.09 13.09 0 0 1-4.48-4.29l1-.54a11.16 11.16 0 0 0 3.46 3.32c1.56.9 2.84.87 2.84-.72 0-1.28-.6-2.2-2.85-4.2-2.57-2.26-3.9-4-3.9-6.06s1.73-2.44 4.16-1a11.84 11.84 0 0 1 4.06 3.88zm11.38 6.34l-1 .6a8.1 8.1 0 0 0-2.54-2.45c-2-1.15-3.66-.77-3.66 3.2 0 3.8 1.6 6.22 3.64 7.4a3.71 3.71 0 0 0 2.81.53l.9 1.67c-.73.32-2 .32-3.77-.7a11.52 11.52 0 0 1-5.51-10c0-4.45 2.5-5.37 5.47-3.65a10.85 10.85 0 0 1 3.66 3.4zm12.34 12.65c0 4.36-2.26 5.5-5.57 3.6a11.4 11.4 0 0 1-5.56-10c0-4.34 2.27-5.53 5.56-3.63a11.42 11.42 0 0 1 5.57 10.04zm-9.2-5.3c0 3.8 1.5 6.17 3.63 7.4s3.64.6 3.64-3.22-1.38-6.13-3.64-7.43-3.63-.55-3.63 3.25zm21.2 14.58c0 2.62-1.66 3.5-4.63 1.78a8.46 8.46 0 0 1-4.59-7.1v-9l1.82 1v8.82a5.05 5.05 0 0 0 2.77 4.66c1.9 1.1 2.8.6 2.8-1.44v-8.82l1.83 1.06zm12.88 11.67l-2.43-1.4-5.36-14.28.25 5.3v6l-1.7-1v-13.18l2.37 1.37 5.42 14.33c0-.32-.25-2.55-.25-4.16v-7.2l1.7 1zm11.43-5.04l-3.66-2.1v11.63l-1.8-1v-11.7l-3.76-2.16V285l9.42 5.43zm9.24 5.1l-1 .53a9.74 9.74 0 0 0-3-2.88c-1.32-.76-2.37-.76-2.37.5 0 1.1.52 1.94 2.9 4 2.1 1.86 3.9 3.72 3.9 6.25 0 2.3-1.74 2.9-4.7 1.18a13 13 0 0 1-4.48-4.28l1-.54a11.09 11.09 0 0 0 3.47 3.32c1.55.9 2.83.87 2.83-.72 0-1.28-.62-2.2-2.85-4.2-2.57-2.26-3.9-4-3.9-6.06s1.72-2.45 4.16-1a11.75 11.75 0 0 1 4.06 3.88z"/></g><path class="C Y e" d="M335.6 72.55l-51.07 29.64 31.9 18.4h18.98l32.03-29.63-31.85-18.4z"/><g class="B"><path d="M386.44 68.76v22.2l-51 29.63V98.4l51-29.63z" class="d"/><path d="M335.43 98.4v22.2l-31.9-18.4V80l31.9 18.4z" fill="#4f6fa3"/><path d="M386.44 68.76l-51 29.63-31.9-18.4 51.07-29.64 31.84 18.4z" class="f"/></g><path d="M365.7 62.5c6.8 3.92 6.8 10.27 0 14.2s-17.78 3.92-24.57 0-6.78-10.27 0-14.2 17.8-3.92 24.57 0z" class="d"/><path d="M364.53 76c-6.12 3.54-16.1 3.54-22.2 0s-6.13-9.3 0-12.83 16.1-3.53 22.2 0 6.13 9.3 0 12.83z" fill="#4f6fa3"/><path d="M363.36 75.3c-5.48 3.16-14.4 3.16-19.87 0s-5.47-8.3 0-11.47 14.4-3.16 19.87 0 5.47 8.34 0 11.47z" class="d"/><g class="b"><path d="M305.6 102.3l-1.25-.73V82.12l1.25.73v19.44zm4.84 2.76l-1.25-.72V84.9l1.25.72v19.44zm4.83 2.77l-1.25-.72V87.67l1.25.72v19.44zm4.83 2.77l-1.26-.73V90.44l1.26.73v19.44zm4.84 2.78l-1.25-.72V93.22l1.25.72v19.44zm4.83 2.78l-1.25-.73V96l1.25.72v19.45zm4.83 2.77l-1.25-.73V98.76l1.25.73v19.44zM452.93 422.1s14.84-18.15 24.08-10.53c9.24-18.28 24.08-17.28 24.08-17.28-20.72-10.53-3.23-46.83-3.23-46.83-9.5 10.55-20.85 7.2-20.85 7.2s-11.35 16.45-20.85 16.87c.03 0 15.9 18.5-3.23 50.56z"/></g><path d="M482.34 390.73a13.08 13.08 0 0 1 .53 2.2v2l-1.4 1.22-1.2-.46a31.33 31.33 0 0 1-2.38 2.37 7.69 7.69 0 0 1-5.28 2 18.66 18.66 0 0 1-3.13-.17 2.75 2.75 0 0 1-1.63-.64c-.05-1.33 3.2-3.36 4.88-5.1l2.9-3.48c1.5-3.7.3-15.14-.35-20.13l-.47-2.1.64-.7c2.38-1.74 7.6-.53 7.6-.53.7 2.44-.8 15.67-1 18.8a18.64 18.64 0 0 0 .3 4.7z" class="g"/><g class="b"><path d="M520.78 347.95l-2.73 4.75a7.84 7.84 0 0 0-6 1.18c-2.34 1.36-4 3.3-4 5.2s1 2.07 5.43.9c4.9-1.26 8-1 8 4s-3.9 10.7-10.47 14.48c-4.5 2.6-7.77 2.9-10 2l2.93-4.93c2 .53 4.14.3 6.92-1.3s4.65-4 4.65-6.4c0-2.15-1.06-2.47-5.16-1.36-5.86 1.55-8.2.56-8.2-3.54 0-4.6 4-9.92 9.46-13.08 4.1-2.36 6.84-2.73 9.18-1.9zm19.42 1.2l-8.94 5.17v11.83l-5.74 3.32v-27l5.74-3.3v10.66l8.94-5.16V334l5.75-3.32v27L540.2 361zm34.14-21.38a24.1 24.1 0 0 1-12 21.07c-7.42 4.28-12 1.83-12-7.2a24.23 24.23 0 0 1 12-21.09c7.43-4.26 12-1.85 12 7.22zm-18 10.37c0 7.08 2.23 8.57 6 6.4s5.94-6.2 5.94-13.28-2.07-8.64-5.94-6.4-5.98 6.23-5.98 13.3zm37.86-31.18l-9.77 5.64v7l8.52-4.92v4.14l-8.52 4.92v7.55l10.47-6v4.22l-16.2 9.37v-27l16.14-9.32zm22.08-14.15l-2.73 4.74a7.82 7.82 0 0 0-6 1.19c-2.34 1.35-3.94 3.3-3.94 5.2s1 2.07 5.43.9c4.88-1.26 8-1 8 4s-3.9 10.7-10.47 14.5c-4.5 2.6-7.78 2.9-10 2l2.92-4.93c2 .53 4.15.3 6.92-1.3s4.65-4 4.65-6.4c0-2.14-1.06-2.47-5.16-1.35-5.86 1.54-8.2.55-8.2-3.55 0-4.6 4-9.92 9.45-13.08 4.04-2.37 6.8-2.74 9.13-1.9z"/></g><path d="M447.6 362.93v78.77L633 334.53v-78.77zm2.56 1.48l176.8-102.2V331L450.2 433.18z" fill="#fff"/><path d="M630.5 260.15v72.9L450.17 437.3v-4.12L626.96 331V262.2l3.54-2.06z" fill="#66a3d0"/><g class="b"><path d="M630.5 260.15v72.9l-3.54-2.06v-68.8l3.54-2.06zm-182.87 102.8v78.75l-4.1-2.4v-78.73l4.1 2.37z"/></g><g class="f"><path d="M630.5 333.05L450.17 437.3v-4.12L626.96 331l3.54 2.06zm2.53-77.28l-185.4 107.17-4.1-2.37 185.42-107.2 4.1 2.4z"/></g><g fill="#618096"><path class="V Y" d="M630.5 333.05h-7.1v-68.8l3.57-2.05V331l3.54 2.06zM443.52 439.3l-4.7 2.4v-78.34l4.7-2.78v78.73z"/></g></g></g></svg>