<svg xmlns="http://www.w3.org/2000/svg" viewBox="0 0 218.52 176.73" xmlns:v="https://vecta.io/nano"><style>.A{isolation:isolate}.E{mix-blend-mode:multiply}</style><g class="A"><g><path d="M0 77.73l59.62-34.38 155.25 89.8-59.48 34.3L0 77.73z" fill="#d1d3d4"/><path d="M155.4 176.73v-9.3l59.48-34.3v9.3l-59.48 34.3z" fill="#e6e7e8"/><path d="M155.4 167.43v9.3L0 87.02v-9.3l155.4 89.7z" fill="#f1f2f2"/><path class="E" d="M2.74 66.23l48.3-27.8 156.17 90.32-48.16 27.72L2.74 66.23z" fill="#414042" opacity=".3"/><path d="M160.5 152.25l54.74-58.06L56.72 3.27 3.27 61.46l157.24 90.8z" fill="#2d3655"/><g fill="#f2f2f2"><path d="M218.48 93.7a3.29 3.29 0 0 0-1.61-2.36L58.34.43A3.28 3.28 0 0 0 56.72 0a3.24 3.24 0 0 0-2.41 1.06L.83 59.3A3.23 3.23 0 0 0 0 62a3.29 3.29 0 0 0 1.6 2.34l157.23 90.73a3.2 3.2 0 0 0 1.63.44 3.23 3.23 0 0 0 2.38-1l54.74-58.05a3.25 3.25 0 0 0 .9-2.75zm-3.23.48l-54.75 58.05L3.26 61.46 56.7 3.3z"/><path d="M75.04 12.8l-1.47-.9-54.8 59.62 1.5.87 54.77-59.6zm18.52 10.32l-1.48-.9L37.3 81.85l1.48.87 54.78-59.6zm18.5 10.33l-1.47-.88L55.8 92.2l1.5.87 54.77-59.6zm18.1 10.68l-1.47-.9-54.8 59.62 1.48.87 54.78-59.6zm18.24 10.53l-1.47-.88-54.8 59.62 1.5.87 54.77-59.6zm17.1 10.54l-1.47-.9-54.8 59.62 1.5.87 54.77-59.6zm18 9.6l-1.47-.9-54.8 59.62 1.5.87 54.77-59.6zm16.66 9.56l-1.48-.88-54.8 59.62 1.5.87 54.78-59.6z"/></g><path class="E" d="M194.26 121.22l15.42 8.92 6.53-3.86-17.15-10.1-4.8 5.05z" fill="#414042" opacity=".3"/><g fill="#f1f2f2"><path d="M40.6 19.08l.4-.7 160.258 92.525-.4.7zm-3.342 4.098l.4-.7 160.387 92.3-.4.7zM20.418 35.5l.4-.713L181.82 127.3l-.4.713zM17.2 44.578l.4-.7 160.2 92.6-.4.7z"/></g></g></g></svg>